<svg width="432" height="296" viewBox="0 0 432 296" fill="none" xmlns="http://www.w3.org/2000/svg">
<g clip-path="url(#clip0_10532_12791)">
<path d="M44.3019 75.9372C-4.83263 171.557 64.2451 256.087 152.235 280.128C216.109 297.589 331.05 296.212 381.097 250.785C431.143 205.359 414.986 136.734 364.276 121.304C332.765 111.712 310.81 106.331 268.534 60.3293C215.861 3.02106 97.5697 -27.7488 44.3019 75.9372Z" fill="#D9EAFF"/>
<path d="M374.855 2.32031C374.855 2.32031 375.254 12.8633 379.553 17.1622C383.851 21.461 394.394 21.8598 394.394 21.8598C394.394 21.8598 383.851 22.2585 379.553 26.5574C375.254 30.8563 374.855 41.3993 374.855 41.3993C374.855 41.3993 374.456 30.8563 370.157 26.5574C365.858 22.2585 355.315 21.8598 355.315 21.8598C355.315 21.8598 365.858 21.461 370.157 17.1622C374.456 12.8633 374.855 2.32031 374.855 2.32031Z" fill="#FFBF00"/>
<path d="M57.1542 256.576C57.1542 256.576 57.534 266.617 61.628 270.711C65.722 274.805 75.7626 275.185 75.7626 275.185C75.7626 275.185 65.722 275.564 61.628 279.658C57.534 283.752 57.1542 293.793 57.1542 293.793C57.1542 293.793 56.7745 283.752 52.6805 279.658C48.5865 275.564 38.5459 275.185 38.5459 275.185C38.5459 275.185 48.5865 274.805 52.6805 270.711C56.7745 266.617 57.1542 256.576 57.1542 256.576Z" fill="#FFBF00"/>
<path d="M31.4285 234.343C31.4285 234.343 31.6508 240.221 34.0474 242.617C36.444 245.014 42.3218 245.236 42.3218 245.236C42.3218 245.236 36.444 245.458 34.0474 247.855C31.6508 250.252 31.4285 256.129 31.4285 256.129C31.4285 256.129 31.2062 250.252 28.8095 247.855C26.4129 245.458 20.5352 245.236 20.5352 245.236C20.5352 245.236 26.4129 245.014 28.8095 242.617C31.2062 240.221 31.4285 234.343 31.4285 234.343Z" fill="#80BAFF"/>
<path d="M410.406 74.3721L395.574 74.3721M402.99 81.7881L402.99 66.9561" stroke="#80BAFF" stroke-width="1.5" stroke-linecap="round" stroke-linejoin="round"/>
<path d="M324.067 29.8613V41.5151M329.889 35.6837H318.235" stroke="#FFBF00" stroke-width="1.5" stroke-linecap="round" stroke-linejoin="round"/>
<path d="M56.5557 147.463L43.8425 147.463M50.199 153.82L50.199 141.106" stroke="#80BAFF" stroke-width="1.5" stroke-linecap="round" stroke-linejoin="round"/>
<mask id="mask0_10532_12791" style="mask-type:alpha" maskUnits="userSpaceOnUse" x="27" y="7" width="385" height="284">
<path d="M44.3019 75.9392C-4.83263 171.559 64.2451 256.089 152.235 280.13C216.109 297.591 331.05 296.214 381.097 250.787C431.143 205.361 414.986 136.736 364.276 121.306C332.765 111.713 310.81 106.332 268.534 60.3313C215.861 3.02301 97.5697 -27.7468 44.3019 75.9392Z" fill="#D9EAFF"/>
</mask>
<g mask="url(#mask0_10532_12791)">
<path d="M92.0223 272.153C85.7128 273.403 76.5059 269.697 70.4758 262.328C64.8575 255.46 60.0629 249.195 60.8865 239.635C61.7101 230.075 65.6076 222.353 76.8441 218.25C86.1246 214.852 91.7281 208.469 99.9496 207.072C101.67 206.778 103.509 206.705 105.524 206.925C113.407 207.778 118.599 212.308 123.393 216.485C127.07 219.691 130.527 222.692 134.777 223.692C144.572 225.971 155.015 239.723 149.146 251.915C143.278 264.093 134.924 271.859 124.658 274.3C119.849 275.447 115.54 274.433 110.833 273.315C110.186 273.168 109.539 273.006 108.877 272.859C104.068 271.771 98.7436 270.859 92.0223 272.197V272.153Z" fill="#BBED58"/>
<path d="M70.4758 262.319C76.5059 269.687 85.6981 273.393 92.0223 272.143C98.7436 270.805 104.068 271.717 108.877 272.805C85.3892 257.862 88.0366 248.258 89.6838 242.258C90.1544 240.566 90.5368 239.169 90.2427 238.007C89.6103 235.507 87.8895 234.477 86.1246 233.404C84.1538 232.212 82.1094 230.977 81.3741 227.638C79.5945 219.505 93.9048 210.019 99.9496 207.048C91.7281 208.445 86.1246 214.828 76.8441 218.226C65.6076 222.344 61.7101 230.05 60.8865 239.61C60.0629 249.17 64.8575 255.436 70.4758 262.304V262.319Z" fill="#96C734"/>
<path d="M92.0223 272.153C85.7128 273.403 76.5059 269.697 70.4758 262.328C64.8575 255.46 60.0629 249.195 60.8865 239.635C61.7101 230.075 65.6076 222.353 76.8441 218.25C86.1246 214.852 91.7281 208.469 99.9496 207.072C101.67 206.778 103.509 206.705 105.524 206.925C113.407 207.778 118.599 212.308 123.393 216.485C127.07 219.691 130.527 222.692 134.777 223.692C144.572 225.971 155.015 239.723 149.146 251.915C143.278 264.093 134.924 271.859 124.658 274.3C119.849 275.447 115.54 274.433 110.833 273.315C110.186 273.168 109.539 273.006 108.877 272.859C104.068 271.771 98.7436 270.859 92.0223 272.197V272.153Z" stroke="#388700" stroke-width="1.5" stroke-linecap="round" stroke-linejoin="round"/>
<path d="M329.129 291.575C321.149 293.156 309.504 288.469 301.877 279.149C294.771 270.461 288.706 262.537 289.748 250.445C290.79 238.354 295.719 228.587 309.932 223.397C321.67 219.1 328.757 211.027 339.156 209.259C341.332 208.887 343.658 208.794 346.206 209.073C356.177 210.152 362.744 215.882 368.808 221.165C373.459 225.22 377.83 229.015 383.207 230.28C395.596 233.164 408.803 250.557 401.381 265.978C393.959 281.381 383.393 291.203 370.408 294.291C364.325 295.742 358.875 294.459 352.922 293.045C352.103 292.859 351.285 292.654 350.448 292.468C344.365 291.091 337.631 289.938 329.129 291.631V291.575Z" fill="#BBED58"/>
<path d="M301.877 279.141C309.504 288.461 321.13 293.149 329.129 291.568C337.631 289.875 344.365 291.028 350.448 292.405C320.74 273.505 324.088 261.357 326.171 253.768C326.767 251.628 327.25 249.861 326.878 248.391C326.078 245.229 323.902 243.927 321.67 242.569C319.177 241.062 316.591 239.5 315.661 235.277C313.41 224.99 331.51 212.991 339.156 209.233C328.757 211.001 321.67 219.074 309.932 223.371C295.719 228.58 290.79 238.328 289.748 250.419C288.706 262.511 294.771 270.435 301.877 279.123V279.141Z" fill="#96C734"/>
<path d="M329.129 291.575C321.149 293.156 309.504 288.469 301.877 279.149C294.771 270.461 288.706 262.537 289.748 250.445C290.79 238.354 295.719 228.587 309.932 223.397C321.67 219.1 328.757 211.027 339.156 209.259C341.332 208.887 343.658 208.794 346.206 209.073C356.177 210.152 362.744 215.882 368.808 221.165C373.459 225.22 377.83 229.015 383.207 230.28C395.596 233.164 408.803 250.557 401.381 265.978C393.959 281.381 383.393 291.203 370.408 294.291C364.325 295.742 358.875 294.459 352.922 293.045C352.103 292.859 351.285 292.654 350.448 292.468C344.365 291.091 337.631 289.938 329.129 291.631V291.575Z" stroke="#388700" stroke-width="1.5" stroke-linecap="round" stroke-linejoin="round"/>
<path d="M321.472 177.648C337.742 168.852 336.437 137.849 371.437 147.697C380.367 150.208 401.953 165.341 393.761 189.498C387.802 207.054 405.151 219.887 398.094 234.231C383.015 264.848 333.164 252.331 317.858 228.858C301.948 204.473 305.75 186.145 321.472 177.63V177.648Z" fill="#BBED58"/>
<path d="M321.476 177.648C337.746 168.852 336.44 137.849 371.441 147.697C364.573 147.101 346.505 145.064 346.505 161.04C346.505 168.571 353.562 175.102 352.805 189.498C351.84 207.844 332.732 207.388 336.289 228.858C338.786 243.957 360.997 250.189 366.068 252.366C347.413 252.489 326.792 242.535 317.881 228.858C301.97 204.473 305.773 186.145 321.494 177.63L321.476 177.648Z" fill="#96C734"/>
<path d="M321.472 177.648C337.742 168.852 336.437 137.849 371.437 147.697C380.367 150.208 401.953 165.341 393.761 189.498C387.802 207.054 405.151 219.887 398.094 234.231C383.015 264.848 333.164 252.331 317.858 228.858C301.948 204.473 305.75 186.145 321.472 177.63V177.648Z" stroke="#388700" stroke-width="1.5" stroke-linecap="round" stroke-linejoin="round"/>
<path fill-rule="evenodd" clip-rule="evenodd" d="M355.871 235.679C354.404 235.679 351.804 236.627 352.315 242.525H352.296C352.362 243.294 352.446 244.166 352.536 245.111C353.141 251.425 353.641 272.813 351.88 276.294C351.652 276.746 351.633 277.22 351.778 277.698C354.955 276.597 358.113 275.456 361.251 274.278C360.56 271.33 359.788 256.447 359.788 252.761C363.893 247.95 371.404 238.751 371.498 236.925C371.575 235.472 367.684 239.967 364.041 244.175C362.271 246.219 360.56 248.196 359.39 249.39C359.239 247.968 359.163 246.598 359.163 245.352C359.182 236.153 357.338 235.679 355.871 235.679Z" fill="#E8A56A"/>
<path d="M121.938 232.482C109.66 237.822 97.245 241.493 79.5612 237.822C52.5064 232.205 38.5813 197.016 52.5451 173.987C62.2502 157.981 37.8264 136.234 56.6965 123.398C65.9509 117.103 87.035 118.827 103.117 133.214C131.463 158.572 111.581 172.392 131.045 196.261C141.387 208.944 137.285 225.806 121.938 232.482Z" fill="#BBED58"/>
<path d="M52.545 173.987C62.2501 157.981 37.8264 136.234 56.6964 123.398C60.8989 120.54 67.5409 119.335 75.0461 120.218C60.8659 126.865 58.5708 146.499 75.0461 171.38C91.5215 196.261 56.289 197.31 69.7998 220.72C77.5091 234.078 98.0433 238.979 100.816 238.82C94.4939 239.641 87.5676 239.484 79.5611 237.822C52.5063 232.205 38.5812 197.016 52.545 173.987Z" fill="#96C734"/>
<path d="M121.938 232.482C109.66 237.822 97.245 241.493 79.5612 237.822C52.5064 232.205 38.5813 197.016 52.5451 173.987C62.2502 157.981 37.8264 136.234 56.6965 123.398C65.9509 117.103 87.035 118.827 103.117 133.214C131.463 158.572 111.581 172.392 131.045 196.261C141.387 208.944 137.285 225.806 121.938 232.482Z" stroke="#388700" stroke-width="1.5" stroke-linejoin="round"/>
<path d="M92.6765 237.474C92.6758 248.607 95.2051 265.425 96.4698 272.442C97.8797 281.21 84.3827 272.442 86.2787 266.376C88.1746 260.31 86.7526 242.113 86.2787 233.193C85.8047 224.272 88.1912 224.735 89.239 224.735C90.2867 224.735 92.6774 223.559 92.6765 237.474Z" fill="#E8A56A"/>
</g>
<path d="M207.12 87.0613H106.185H82.4083C77.1275 87.0613 68.21 86.6407 68.21 81.9927C68.21 77.5442 69.828 75.5449 89.1612 71.5171C108.494 67.4893 107.26 50.2103 125.371 45.8319C149.806 39.9245 144.704 58.9893 156.519 61.4059C168.334 63.8226 180.685 52.8133 193.037 57.1096C205.389 61.4059 197.87 67.3133 202.167 74.5633C206.463 81.8132 218.278 74.5633 218.815 81.2762C219.244 86.6465 211.197 87.3706 207.12 87.0613Z" fill="#FFFCFA"/>
<path opacity="0.5" d="M207.12 87.0675H106.185H82.4083C77.1275 87.0675 68.21 86.6469 68.21 81.9989C79.79 82.154 105.65 81.3701 116.452 76.9937C129.954 71.5233 135.176 67.802 142.892 70.8482C148.115 72.9104 144.42 77.9581 161.394 76.9937C173.718 76.2934 177.63 73.3585 187.24 78.9225C194.57 83.166 210.656 85.571 218.815 81.2824C219.244 86.6527 211.197 87.3767 207.12 87.0675Z" fill="#80BAFF"/>
<path d="M245.181 206.644C246.526 206.644 247.616 207.724 247.616 209.057V218.71H256.138V209.057C256.138 207.724 257.228 206.644 258.573 206.644H264.66C266.005 206.644 267.095 207.724 267.095 209.057V218.71H275.617V209.057C275.617 207.724 276.707 206.644 278.052 206.644H284.139C285.483 206.644 286.573 207.724 286.573 209.057V218.71H295.095V209.057C295.095 207.724 296.186 206.644 297.53 206.644H303.617C304.962 206.644 306.052 207.724 306.052 209.057V218.71H314.574V209.057C314.574 207.724 315.664 206.644 317.009 206.644H323.096C324.441 206.644 325.531 207.724 325.531 209.057V218.71H334.053V209.057C334.053 207.724 335.143 206.644 336.488 206.644H342.575C343.92 206.644 345.01 207.724 345.01 209.057V291.55C345.01 293.306 343.587 294.729 341.831 294.729H236.659V209.057C236.659 207.724 237.749 206.644 239.094 206.644H245.181Z" fill="#E8A56A"/>
<path d="M245.181 206.644C246.526 206.644 247.616 207.724 247.616 209.057V218.71H256.138V209.057C256.138 207.724 257.228 206.644 258.573 206.644H264.66C266.005 206.644 267.095 207.724 267.095 209.057V218.71H275.617V209.057C275.617 207.724 276.707 206.644 278.052 206.644H284.139C285.483 206.644 286.573 207.724 286.573 209.057V218.71H295.095V209.057C295.095 207.724 296.186 206.644 297.53 206.644H303.617C304.962 206.644 306.052 207.724 306.052 209.057V218.71H314.574V209.057C314.574 207.724 315.664 206.644 317.009 206.644H323.096C324.441 206.644 325.531 207.724 325.531 209.057V218.71H334.053V209.057C334.053 207.724 335.143 206.644 336.488 206.644H342.575C343.92 206.644 345.01 207.724 345.01 209.057V291.55C345.01 293.306 343.587 294.729 341.831 294.729H236.659V209.057C236.659 207.724 237.749 206.644 239.094 206.644H245.181Z" stroke="#78614B" stroke-width="1.5"/>
<path d="M110.633 206.644C111.978 206.644 113.068 207.724 113.068 209.057V218.71H121.59V209.057C121.59 207.724 122.68 206.644 124.025 206.644H130.112C131.457 206.644 132.547 207.724 132.547 209.057V218.71H141.069V209.057C141.069 207.724 142.159 206.644 143.504 206.644H149.591C150.936 206.644 152.026 207.724 152.026 209.057V218.71H160.548V209.057C160.548 207.724 161.638 206.644 162.982 206.644H169.07C170.414 206.644 171.504 207.724 171.504 209.057V218.71H180.026V209.057C180.026 207.724 181.116 206.644 182.461 206.644H188.548C189.893 206.644 190.983 207.724 190.983 209.057V218.71H199.505V209.057C199.505 207.724 200.595 206.644 201.94 206.644H208.027C209.372 206.644 210.462 207.724 210.462 209.057V294.729H105.29C103.534 294.729 102.111 293.306 102.111 291.55V209.057C102.111 207.724 103.201 206.644 104.546 206.644H110.633Z" fill="#E8A56A"/>
<path d="M110.633 206.644C111.978 206.644 113.068 207.724 113.068 209.057V218.71H121.59V209.057C121.59 207.724 122.68 206.644 124.025 206.644H130.112C131.457 206.644 132.547 207.724 132.547 209.057V218.71H141.069V209.057C141.069 207.724 142.159 206.644 143.504 206.644H149.591C150.936 206.644 152.026 207.724 152.026 209.057V218.71H160.548V209.057C160.548 207.724 161.638 206.644 162.982 206.644H169.07C170.414 206.644 171.504 207.724 171.504 209.057V218.71H180.026V209.057C180.026 207.724 181.116 206.644 182.461 206.644H188.548C189.893 206.644 190.983 207.724 190.983 209.057V218.71H199.505V209.057C199.505 207.724 200.595 206.644 201.94 206.644H208.027C209.372 206.644 210.462 207.724 210.462 209.057V294.729H105.29C103.534 294.729 102.111 293.306 102.111 291.55V209.057C102.111 207.724 103.201 206.644 104.546 206.644H110.633Z" stroke="#78614B" stroke-width="1.5"/>
<path d="M261.529 3.1748V34.447" stroke="#D93511" stroke-width="1.5"/>
<path d="M276.112 5.87905C273.095 5.87905 270.078 1.27539 267.061 1.27539C264.828 1.27539 262.871 2.22052 262.004 2.71216C261.7 2.88435 261.529 3.21037 261.529 3.55945V14.5355C261.529 15.3882 262.524 15.9479 263.312 15.6222C264.304 15.2125 265.625 14.8217 267.061 14.8217C270.078 14.8217 273.095 19.4253 276.112 19.4253C278.512 19.4253 282.503 17.8447 284.035 17.1984C284.419 17.0365 284.66 16.6602 284.66 16.2438V5.02233C284.66 4.25297 283.864 3.73058 283.149 4.01522C281.291 4.75513 278.136 5.87905 276.112 5.87905Z" fill="#FF9780"/>
<path d="M276.112 5.87905C273.095 5.87905 270.078 1.27539 267.061 1.27539C264.828 1.27539 262.871 2.22052 262.004 2.71216C261.7 2.88435 261.529 3.21037 261.529 3.55945V14.5355C261.529 15.3882 262.524 15.9479 263.312 15.6222C264.304 15.2125 265.625 14.8217 267.061 14.8217C270.078 14.8217 273.095 19.4253 276.112 19.4253C278.512 19.4253 282.503 17.8447 284.035 17.1984C284.419 17.0365 284.66 16.6602 284.66 16.2438V5.02233C284.66 4.25297 283.864 3.73058 283.149 4.01522C281.291 4.75513 278.136 5.87905 276.112 5.87905Z" stroke="#D93511" stroke-width="1.5"/>
<rect x="240.833" y="91.9268" width="41.3923" height="115.838" fill="#E8A56A"/>
<rect x="240.833" y="91.9268" width="41.3923" height="115.838" stroke="#78614B" stroke-width="1.5"/>
<path d="M253.007 207.749L253.007 91.9113" stroke="#78614B" stroke-width="1.5" stroke-linecap="round"/>
<path d="M270.051 207.749L270.051 91.9113" stroke="#78614B" stroke-width="1.5" stroke-linecap="round"/>
<path d="M257.877 113.816C257.877 111.799 259.512 110.164 261.529 110.164C263.546 110.164 265.181 111.799 265.181 113.816V133.09H257.877V113.816Z" fill="#455660"/>
<path d="M260.54 30.137C260.839 29.1251 262.272 29.1251 262.572 30.137L274.599 70.801L286.608 91.8621C287.011 92.5684 286.501 93.4463 285.688 93.4463H237.423C236.61 93.4463 236.1 92.5684 236.503 91.8621L248.513 70.801L260.54 30.137Z" fill="#D93511"/>
<path d="M230.855 154.889C232.793 154.889 234.364 156.531 234.364 158.556V176.895H246.06C247.998 176.895 249.569 178.537 249.569 180.562V198.901H262.436C264.374 198.901 265.945 200.543 265.945 202.568V222.129H184.067V202.568C184.067 200.543 185.638 198.901 187.576 198.901H200.443V180.562C200.443 178.537 202.014 176.895 203.952 176.895H215.649V158.556C215.649 156.531 217.22 154.889 219.158 154.889H230.855Z" fill="#E8A56A"/>
<path d="M219.158 155.639H230.854C232.347 155.639 233.613 156.914 233.613 158.557V177.645H246.061C247.553 177.645 248.819 178.92 248.819 180.562V199.65H262.436C263.928 199.65 265.195 200.925 265.195 202.568V221.38H184.817V202.568C184.817 200.926 186.083 199.651 187.576 199.65H201.193V180.562C201.193 178.92 202.459 177.645 203.952 177.645H216.398V158.557C216.398 157.016 217.512 155.799 218.881 155.653L219.158 155.639Z" stroke="#78614B" stroke-width="1.5"/>
<path d="M215.648 194.386C215.648 189.218 219.838 185.028 225.006 185.028C230.174 185.028 234.363 189.218 234.363 194.386V195.462H215.648V194.386Z" fill="#455660"/>
<path d="M317.817 291.545C317.817 293.3 316.394 294.723 314.639 294.723H266.211C264.456 294.723 263.033 293.3 263.033 291.545V182.505H262.907L255.729 170.439V149.926C255.729 148.593 256.819 147.513 258.163 147.513H264.25C265.595 147.513 266.685 148.593 266.685 149.926V159.579H275.207V149.926C275.207 148.593 276.297 147.513 277.642 147.513H283.729C285.074 147.513 286.164 148.593 286.164 149.926V159.579H294.686V149.926C294.686 148.593 295.776 147.513 297.121 147.513H303.208C304.553 147.513 305.643 148.593 305.643 149.926V159.579H314.165V151.133C314.165 149.133 315.8 147.513 317.817 147.513H321.469C323.486 147.513 325.122 149.133 325.122 151.133V170.439L317.943 182.505H317.817V291.545Z" fill="#E8A56A"/>
<path d="M317.817 291.545C317.817 293.3 316.394 294.723 314.639 294.723H263.033V182.505H262.907L255.729 170.439V149.926C255.729 148.593 256.819 147.513 258.163 147.513H264.25C265.595 147.513 266.685 148.593 266.685 149.926V159.579H275.207V149.926C275.207 148.593 276.297 147.513 277.642 147.513H283.729C285.074 147.513 286.164 148.593 286.164 149.926V159.579H294.686V149.926C294.686 148.593 295.776 147.513 297.121 147.513H303.208C304.553 147.513 305.643 148.593 305.643 149.926V159.579H314.165V151.133C314.165 149.133 315.8 147.513 317.817 147.513H321.469C323.486 147.513 325.122 149.133 325.122 151.133V170.439L317.943 182.505H317.817V291.545Z" stroke="#78614B" stroke-width="1.5" stroke-linejoin="round"/>
<path d="M255.729 170.445H325.122" stroke="#78614B" stroke-width="1.5" stroke-linecap="round"/>
<path d="M263.033 182.512H317.817" stroke="#78614B" stroke-width="1.5" stroke-linecap="round"/>
<path d="M301.99 222.957C301.99 221.276 303.353 219.913 305.034 219.913C306.715 219.913 308.077 221.276 308.077 222.957V253.699H301.99V222.957Z" fill="#455660"/>
<path d="M184.99 294.726H133.384C131.629 294.726 130.206 293.303 130.206 291.547V147.515H130.08L122.901 135.449V114.936C122.901 113.603 123.991 112.522 125.336 112.522H131.423C132.768 112.522 133.858 113.603 133.858 114.936V124.589H142.38V114.936C142.38 113.603 143.47 112.522 144.815 112.522H150.902C152.247 112.522 153.337 113.603 153.337 114.936V124.589H161.859V114.936C161.859 113.603 162.949 112.522 164.294 112.522H170.381C171.726 112.522 172.816 113.603 172.816 114.936V124.589H181.338V116.142C181.338 114.143 182.973 112.522 184.99 112.522H188.642C190.659 112.522 192.294 114.143 192.294 116.142V135.449L185.116 147.515H184.99V294.726Z" fill="#E8A56A"/>
<path d="M184.99 294.726H133.384C131.629 294.726 130.206 293.303 130.206 291.547V147.515H130.08L122.901 135.449V114.936C122.901 113.603 123.991 112.522 125.336 112.522H131.423C132.768 112.522 133.858 113.603 133.858 114.936V124.589H142.38V114.936C142.38 113.603 143.47 112.522 144.815 112.522H150.902C152.247 112.522 153.337 113.603 153.337 114.936V124.589H161.859V114.936C161.859 113.603 162.949 112.522 164.294 112.522H170.381C171.726 112.522 172.816 113.603 172.816 114.936V124.589H181.338V116.142C181.338 114.143 182.973 112.522 184.99 112.522H188.642C190.659 112.522 192.294 114.143 192.294 116.142V135.449L185.116 147.515H184.99V294.726Z" stroke="#78614B" stroke-width="1.5" stroke-linejoin="round"/>
<path d="M122.901 135.446H192.294" stroke="#78614B" stroke-width="1.5" stroke-linecap="round"/>
<path d="M130.206 147.514H184.99" stroke="#78614B" stroke-width="1.5" stroke-linecap="round"/>
<path d="M138.728 166.243C138.728 164.562 140.09 163.199 141.771 163.199C143.452 163.199 144.815 164.562 144.815 166.243V196.985H138.728V166.243Z" fill="#455660"/>
<path d="M178.745 206.644C180.089 206.644 181.179 207.724 181.179 209.057V218.71H189.701V209.057C189.701 207.724 190.792 206.644 192.136 206.644H198.223C199.568 206.644 200.658 207.724 200.658 209.057V218.71H209.18V209.057C209.18 207.724 210.27 206.644 211.615 206.644H217.702C219.047 206.644 220.137 207.724 220.137 209.057V218.71H228.659V209.057C228.659 207.724 229.749 206.644 231.094 206.644H237.181C238.526 206.644 239.616 207.724 239.616 209.057V218.71H248.138V209.057C248.138 207.724 249.228 206.644 250.573 206.644H256.66C258.004 206.644 259.094 207.724 259.094 209.057V218.71H267.616V209.057C267.616 207.724 268.707 206.644 270.051 206.644H276.138C277.483 206.644 278.573 207.724 278.573 209.057V294.729H170.223V209.057C170.223 207.724 171.313 206.644 172.658 206.644H178.745Z" fill="#E8A56A"/>
<path d="M178.745 206.644C180.089 206.644 181.179 207.724 181.179 209.057V218.71H189.701V209.057C189.701 207.724 190.792 206.644 192.136 206.644H198.223C199.568 206.644 200.658 207.724 200.658 209.057V218.71H209.18V209.057C209.18 207.724 210.27 206.644 211.615 206.644H217.702C219.047 206.644 220.137 207.724 220.137 209.057V218.71H228.659V209.057C228.659 207.724 229.749 206.644 231.094 206.644H237.181C238.526 206.644 239.616 207.724 239.616 209.057V218.71H248.138V209.057C248.138 207.724 249.228 206.644 250.573 206.644H256.66C258.004 206.644 259.094 207.724 259.094 209.057V218.71H267.616V209.057C267.616 207.724 268.707 206.644 270.051 206.644H276.138C277.483 206.644 278.573 207.724 278.573 209.057V294.729H170.223V209.057C170.223 207.724 171.313 206.644 172.658 206.644H178.745Z" stroke="#78614B" stroke-width="1.5"/>
<path d="M257.877 241.059C257.877 239.378 259.24 238.016 260.921 238.016C262.601 238.016 263.964 239.378 263.964 241.059V271.802H257.877V241.059Z" fill="#455660"/>
<path d="M184.832 239.858C184.832 238.177 186.195 236.814 187.876 236.814C189.556 236.814 190.919 238.177 190.919 239.858V270.6H184.832V239.858Z" fill="#455660"/>
<path d="M205.528 246.028C205.528 235.607 213.977 227.158 224.398 227.158C234.82 227.158 243.268 235.607 243.268 246.028V294.73H205.528V246.028Z" fill="#455660"/>
</g>
<defs>
<clipPath id="clip0_10532_12791">
<rect width="432" height="296" fill="white"/>
</clipPath>
</defs>
</svg>
