<svg width="432" height="296" viewBox="0 0 432 296" fill="none" xmlns="http://www.w3.org/2000/svg">
<g clip-path="url(#clip0_10532_12758)">
<path d="M41.1232 64.88C-8.01134 152.621 61.0664 230.186 149.057 252.246C212.93 268.269 327.872 267.005 377.918 225.321C427.964 183.638 411.808 120.667 361.097 106.509C329.586 97.7066 307.631 92.769 265.356 50.5582C212.683 -2.02806 94.391 -30.2626 41.1232 64.88Z" fill="#D9EAFF"/>
<ellipse opacity="0.3" cx="212.366" cy="286.242" rx="165.631" ry="7.56159" fill="#838E95"/>
<mask id="mask0_10532_12758" style="mask-type:alpha" maskUnits="userSpaceOnUse" x="24" y="2" width="385" height="260">
<path d="M41.1232 64.8791C-8.01134 152.62 61.0664 230.185 149.057 252.245C212.93 268.268 327.872 267.004 377.918 225.32C422.055 188.559 414.114 136.216 379.152 114.498C378.623 113.428 379.152 73.1801 360.612 71.591C341.013 63.6453 346.84 102.416 344.721 101.785C320.517 94.5799 300.479 85.6269 265.356 50.5572C212.683 -2.02903 94.391 -30.2635 41.1232 64.8791Z" fill="#D9EAFF"/>
</mask>
<g mask="url(#mask0_10532_12758)">
<path d="M222.644 62.9941H114.278H88.7505C83.0809 62.9941 73.5068 62.5798 73.5068 58.0008C73.5068 53.6182 75.244 51.6487 96.0005 47.6806C116.757 43.7126 115.432 26.6901 134.876 22.3767C161.11 16.557 155.633 35.3387 168.317 37.7195C181.002 40.1003 194.263 29.2545 207.524 33.487C220.785 37.7195 212.713 43.5393 217.326 50.6816C221.938 57.8239 234.623 50.6816 235.199 57.2949C235.661 62.5855 227.021 63.2988 222.644 62.9941Z" fill="#FFFCFA"/>
<path opacity="0.5" d="M222.644 62.9951H114.278H88.7505C83.0809 62.9951 73.5068 62.5807 73.5068 58.0017C85.9394 58.1545 113.704 57.3822 125.3 53.0708C139.796 47.6816 145.403 44.0155 153.687 47.0165C159.294 49.0481 155.327 54.0209 173.551 53.0708C186.783 52.381 190.982 49.4896 201.3 54.971C209.169 59.1515 226.439 61.5208 235.199 57.2958C235.661 62.5864 227.021 63.2997 222.644 62.9951Z" fill="#80BAFF"/>
<path opacity="0.5" d="M250.607 76.2229C261.314 76.0129 255.829 85.7385 275.525 90.9154C295.22 96.0924 296.08 91.5946 306.39 95.5648C314.878 98.8335 311.737 117.327 353.37 123.923C389.588 129.662 439.342 149.646 550.147 146.696L561.736 224.167L-18.846 262.587C-20.7564 262.713 -22.4588 261.789 -22.6483 260.522L-33.9915 184.692C-34.1471 183.651 -33.2138 182.668 -31.738 182.297C74.9516 155.466 148.837 111.157 159.049 109.822C169.341 108.476 170.859 113.399 180.27 110.958C195.274 107.066 239.607 76.4593 250.325 76.2484C250.424 76.2465 250.522 76.2465 250.619 76.2463C250.615 76.2386 250.611 76.2306 250.607 76.2229Z" fill="#80BAFF"/>
<path d="M413.029 212.61C406.72 213.757 397.513 210.356 391.483 203.594C385.864 197.292 381.07 191.543 381.893 182.771C382.717 173.999 386.614 166.913 397.851 163.148C407.131 160.031 412.735 154.173 420.956 152.891C422.677 152.621 424.516 152.554 426.531 152.756C434.414 153.539 439.606 157.696 444.4 161.529C448.077 164.471 451.533 167.224 455.784 168.141C465.579 170.233 476.021 182.852 470.153 194.04C464.285 205.214 455.931 212.34 445.665 214.58C440.856 215.633 436.546 214.701 431.84 213.676C431.193 213.541 430.546 213.392 429.884 213.257C425.075 212.259 419.75 211.422 413.029 212.65V212.61Z" fill="#BBED58"/>
<path d="M391.483 203.575C397.513 210.336 406.705 213.737 413.029 212.59C419.75 211.362 425.075 212.199 429.884 213.197C406.396 199.486 409.043 190.673 410.691 185.167C411.161 183.615 411.544 182.333 411.25 181.267C410.617 178.972 408.896 178.028 407.131 177.043C405.161 175.949 403.116 174.816 402.381 171.752C400.601 164.289 414.912 155.585 420.956 152.858C412.735 154.14 407.131 159.998 397.851 163.115C386.614 166.894 382.717 173.966 381.893 182.738C381.07 191.51 385.864 197.259 391.483 203.562V203.575Z" fill="#96C734"/>
<path d="M413.029 212.61C406.72 213.757 397.513 210.356 391.483 203.594C385.864 197.292 381.07 191.543 381.893 182.771C382.717 173.999 386.614 166.913 397.851 163.148C407.131 160.031 412.735 154.173 420.956 152.891C422.677 152.621 424.516 152.554 426.531 152.756C434.414 153.539 439.606 157.696 444.4 161.529C448.077 164.471 451.533 167.224 455.784 168.141C465.579 170.233 476.021 182.852 470.153 194.04C464.285 205.214 455.931 212.34 445.665 214.58C440.856 215.633 436.546 214.701 431.84 213.676C431.193 213.541 430.546 213.392 429.884 213.257C425.075 212.259 419.75 211.422 413.029 212.65V212.61Z" stroke="#388700" stroke-width="1.5" stroke-linecap="round" stroke-linejoin="round"/>
<path d="M47.1138 113.025C56.4587 99.3376 57.3589 77.5846 66.0824 78.9789C74.8059 80.3732 75.9802 102.905 80.9535 113.54C88.3757 129.411 103.476 138.021 104.204 146.715C104.859 154.529 91.6562 149.687 90.0881 159.498C88.5699 168.996 114.62 187.565 113.431 195C112.127 203.158 100.119 196.791 99.5223 204.295C99.087 209.77 114.26 221.599 111.363 230.465C109.209 237.061 77.9516 226.78 60.1429 220.806C42.3343 214.832 4.77977 208.749 9.44661 201.807C14.1134 194.865 31.1553 187.551 28.9615 182.611C26.7677 177.67 14.8361 181.273 16.4865 173.557C18.1967 165.56 46.3063 152.952 44.1309 141.84C43.1562 136.861 30.3878 142.667 29.4854 135.002C28.7537 128.788 37.769 126.713 47.1138 113.025Z" fill="#BBED58"/>
<path d="M47.1138 113.025C56.4587 99.3376 57.3589 77.5846 66.0824 78.9789C57.6914 85.4723 62.9585 103.134 59.2914 114.972C55.6243 126.81 49.9909 129.523 52.0209 133.425C54.0509 137.328 66.7001 132.785 68.8487 140.436C71.4873 149.832 50.4137 169.999 53.0312 182.557C55.0377 192.184 65.3191 188.422 71.3275 199.788C75.6421 207.95 65.8771 215.542 74.5047 225.497C69.3397 223.879 64.3636 222.222 60.143 220.806C42.3343 214.832 4.77979 208.749 9.44662 201.807C14.1135 194.865 31.1553 187.551 28.9615 182.611C26.7677 177.67 14.8361 181.273 16.4865 173.556C18.1967 165.56 46.3063 152.952 44.1309 141.84C43.1562 136.861 30.3878 142.667 29.4854 135.002C28.7537 128.788 37.769 126.713 47.1138 113.025Z" fill="#96C734"/>
<path d="M65.9637 79.7194C67.8091 80.0144 69.3627 81.4414 70.7359 83.8437C72.1023 86.234 73.202 89.4392 74.2019 92.9967C75.2037 96.5612 76.0779 100.373 77.0327 104.038C77.9792 107.67 78.9996 111.131 80.2745 113.857C84.0415 121.913 89.7512 128.112 94.5367 133.326C96.9422 135.947 99.0958 138.299 100.698 140.532C102.302 142.768 103.292 144.804 103.457 146.778C103.53 147.651 103.406 148.293 103.173 148.784C102.94 149.274 102.573 149.669 102.073 150.01C101.026 150.724 99.5337 151.125 97.7701 151.637C96.0716 152.131 94.1745 152.719 92.6076 153.853C91.0017 155.015 89.7719 156.726 89.3478 159.379C89.1292 160.748 89.4137 162.219 90.0059 163.72C90.5996 165.225 91.5231 166.812 92.6457 168.433C94.8888 171.674 97.9991 175.153 101.082 178.528C104.182 181.922 107.251 185.206 109.477 188.108C110.589 189.558 111.468 190.884 112.031 192.055C112.602 193.24 112.804 194.176 112.691 194.882C112.403 196.683 111.558 197.61 110.453 198.169C109.276 198.765 107.773 198.961 106.127 199.147C104.555 199.325 102.811 199.495 101.442 200.147C100.735 200.484 100.099 200.959 99.6215 201.648C99.1443 202.337 98.8578 203.192 98.7748 204.235C98.7067 205.092 98.9455 206.005 99.3345 206.921C99.727 207.844 100.299 208.832 100.968 209.857C102.292 211.887 104.097 214.211 105.755 216.543C107.437 218.91 109.007 221.334 109.981 223.692C110.956 226.052 111.296 228.256 110.651 230.232C110.487 230.733 110.028 231.171 109.053 231.472C108.075 231.774 106.705 231.893 104.983 231.83C101.549 231.703 96.9426 230.864 91.7999 229.621C81.5267 227.137 69.29 223.083 60.3812 220.095C55.899 218.591 50.1865 217.084 44.2374 215.566C38.2769 214.045 32.0745 212.513 26.5719 210.949C21.0563 209.381 16.3091 207.8 13.2414 206.199C11.6949 205.392 10.6701 204.627 10.1606 203.93C9.91454 203.593 9.81374 203.304 9.80046 203.058C9.78761 202.819 9.85291 202.547 10.069 202.226C11.1658 200.594 13.0258 198.896 15.2353 197.164C17.4407 195.436 19.911 193.738 22.2174 192.066C24.4976 190.412 26.6276 188.777 28.0479 187.224C29.4187 185.725 30.4 184.003 29.6468 182.306C28.9711 180.785 27.568 179.989 26.0961 179.487C24.6442 178.992 22.8985 178.717 21.4459 178.393C19.9145 178.051 18.6909 177.653 17.9315 176.974C17.5711 176.651 17.3161 176.263 17.184 175.766C17.0495 175.26 17.0316 174.596 17.2203 173.714C17.3975 172.886 17.9369 171.924 18.8345 170.829C19.7245 169.744 20.9197 168.583 22.327 167.355C25.1523 164.89 28.7171 162.249 32.2324 159.454C35.7189 156.683 39.1382 153.772 41.5493 150.836C43.944 147.919 45.4771 144.815 44.8665 141.696C44.7083 140.888 44.2987 140.272 43.7089 139.83C43.1402 139.404 42.4361 139.163 41.7082 139.014C40.2799 138.722 38.4572 138.741 36.809 138.679C35.0903 138.614 33.5173 138.464 32.3285 137.921C31.7497 137.657 31.2821 137.308 30.9344 136.843C30.5874 136.379 30.3296 135.762 30.2299 134.915C30.0725 133.578 30.4265 132.463 31.2332 131.298C32.0638 130.099 33.3473 128.886 35.0233 127.373C38.3506 124.369 43.004 120.375 47.7329 113.448C52.4763 106.501 55.0789 97.5032 57.5376 90.5981C58.7815 87.1045 59.9744 84.1811 61.3641 82.2191C62.737 80.2809 64.181 79.4346 65.9637 79.7194Z" stroke="#388700" stroke-width="1.5"/>
<path d="M341.636 107.732C350.981 94.0446 351.881 72.2916 360.605 73.6859C369.328 75.0802 370.503 97.6117 375.476 108.247C382.898 124.119 397.998 132.728 398.727 141.422C399.381 149.236 386.179 144.394 384.611 154.205C383.092 163.703 409.142 182.272 407.954 189.707C406.65 197.865 394.641 191.498 394.045 199.002C393.609 204.477 408.783 216.306 405.886 225.172C403.731 231.768 372.474 221.487 354.665 215.513C336.857 209.539 299.302 203.456 303.969 196.514C308.636 189.572 325.678 182.258 323.484 177.318C321.29 172.377 309.359 175.98 311.009 168.264C312.719 160.268 340.829 147.66 338.653 136.547C337.679 131.568 324.91 137.374 324.008 129.709C323.276 123.495 332.291 121.42 341.636 107.732Z" fill="#BBED58"/>
<path d="M341.636 107.732C350.981 94.0446 351.881 72.2916 360.605 73.6859C352.214 80.1793 357.481 97.8407 353.814 109.679C350.147 121.517 344.513 124.23 346.543 128.132C348.573 132.035 361.223 127.492 363.371 135.143C366.01 144.539 344.936 164.706 347.554 177.264C349.56 186.891 359.842 183.129 365.85 194.495C370.165 202.657 360.4 210.249 369.027 220.204C363.862 218.586 358.886 216.929 354.665 215.513C336.857 209.539 299.302 203.456 303.969 196.514C308.636 189.572 325.678 182.258 323.484 177.318C321.29 172.377 309.359 175.98 311.009 168.264C312.719 160.267 340.829 147.659 338.653 136.547C337.679 131.568 324.91 137.374 324.008 129.709C323.276 123.495 332.291 121.42 341.636 107.732Z" fill="#96C734"/>
<path d="M360.486 74.4265C362.332 74.7214 363.885 76.1485 365.258 78.5507C366.625 80.9411 367.725 84.1462 368.724 87.7037C369.726 91.2682 370.6 95.0804 371.555 98.7449C372.502 102.377 373.522 105.838 374.797 108.564C378.564 116.62 384.274 122.819 389.059 128.033C391.465 130.654 393.618 133.006 395.221 135.239C396.825 137.475 397.814 139.511 397.979 141.485C398.053 142.358 397.929 143 397.695 143.491C397.463 143.981 397.096 144.376 396.596 144.717C395.549 145.431 394.056 145.832 392.293 146.344C390.594 146.838 388.697 147.426 387.13 148.56C385.524 149.722 384.294 151.433 383.87 154.086C383.652 155.455 383.936 156.927 384.528 158.427C385.122 159.932 386.046 161.519 387.168 163.14C389.411 166.381 392.522 169.86 395.604 173.235C398.705 176.629 401.773 179.913 403.999 182.815C405.111 184.265 405.991 185.591 406.554 186.762C407.124 187.947 407.327 188.883 407.214 189.589C406.926 191.39 406.08 192.317 404.975 192.876C403.798 193.472 402.296 193.668 400.65 193.854C399.077 194.032 397.333 194.202 395.964 194.854C395.257 195.191 394.621 195.666 394.144 196.355C393.667 197.044 393.38 197.899 393.297 198.942C393.229 199.799 393.468 200.712 393.857 201.628C394.249 202.551 394.822 203.539 395.49 204.564C396.815 206.594 398.619 208.918 400.277 211.25C401.96 213.617 403.529 216.041 404.503 218.399C405.478 220.759 405.819 222.963 405.173 224.939C405.009 225.44 404.55 225.878 403.575 226.179C402.597 226.481 401.227 226.6 399.505 226.537C396.071 226.41 391.465 225.571 386.322 224.328C376.049 221.844 363.812 217.79 354.904 214.802C350.421 213.298 344.709 211.791 338.76 210.273C332.799 208.752 326.597 207.22 321.094 205.656C315.579 204.088 310.832 202.507 307.764 200.906C306.217 200.099 305.193 199.334 304.683 198.637C304.437 198.3 304.336 198.011 304.323 197.765C304.31 197.526 304.375 197.254 304.591 196.933C305.688 195.301 307.548 193.603 309.758 191.871C311.963 190.143 314.433 188.445 316.74 186.773C319.02 185.119 321.15 183.484 322.57 181.931C323.941 180.433 324.922 178.71 324.169 177.013C323.494 175.492 322.09 174.696 320.619 174.194C319.167 173.699 317.421 173.424 315.968 173.1C314.437 172.758 313.213 172.36 312.454 171.681C312.094 171.358 311.839 170.97 311.706 170.473C311.572 169.967 311.554 169.303 311.743 168.421C311.92 167.593 312.459 166.631 313.357 165.536C314.247 164.451 315.442 163.29 316.849 162.062C319.675 159.597 323.24 156.956 326.755 154.161C330.241 151.39 333.661 148.479 336.072 145.543C338.466 142.626 340 139.522 339.389 136.403C339.231 135.595 338.821 134.979 338.231 134.537C337.663 134.111 336.959 133.87 336.231 133.721C334.802 133.429 332.98 133.448 331.331 133.386C329.613 133.321 328.04 133.171 326.851 132.628C326.272 132.364 325.805 132.015 325.457 131.55C325.11 131.087 324.852 130.469 324.752 129.622C324.595 128.285 324.949 127.17 325.756 126.005C326.586 124.806 327.87 123.593 329.546 122.08C332.873 119.076 337.526 115.082 342.255 108.155C346.999 101.208 349.601 92.2103 352.06 85.3051C353.304 81.8116 354.497 78.8881 355.887 76.9261C357.259 74.9879 358.703 74.1416 360.486 74.4265Z" stroke="#388700" stroke-width="1.5"/>
<path d="M337.782 183.619C346.788 170.428 347.655 149.464 356.063 150.807C364.47 152.151 365.601 173.866 370.394 184.115C377.547 199.411 392.1 207.708 392.802 216.087C393.433 223.618 380.709 218.951 379.198 228.406C377.735 237.56 402.84 255.456 401.694 262.621C400.438 270.483 388.865 264.347 388.29 271.579C387.87 276.856 402.493 288.255 399.701 296.8C397.625 303.156 367.501 293.248 350.339 287.491C333.176 281.734 296.983 275.872 301.481 269.181C305.978 262.491 322.402 255.442 320.288 250.681C318.174 245.92 306.675 249.392 308.265 241.955C309.914 234.249 337.004 222.098 334.907 211.389C333.968 206.591 321.662 212.186 320.793 204.799C320.088 198.81 328.776 196.811 337.782 183.619Z" fill="#BBED58"/>
<path d="M337.782 183.619C346.788 170.428 347.655 149.464 356.063 150.807C347.976 157.065 353.052 174.086 349.518 185.495C345.984 196.904 340.555 199.518 342.511 203.279C344.467 207.04 356.658 202.662 358.729 210.036C361.271 219.091 340.962 238.526 343.485 250.629C345.418 259.907 355.327 256.281 361.117 267.235C365.276 275.101 355.865 282.418 364.179 292.012C359.202 290.453 354.406 288.855 350.339 287.491C333.176 281.734 296.983 275.871 301.481 269.181C305.978 262.49 322.402 255.442 320.288 250.681C318.174 245.919 306.675 249.392 308.265 241.955C309.914 234.249 337.004 222.098 334.907 211.389C333.968 206.59 321.662 212.186 320.793 204.799C320.088 198.81 328.776 196.811 337.782 183.619Z" fill="#96C734"/>
<path d="M355.944 151.548C357.711 151.83 359.202 153.198 360.524 155.51C361.839 157.811 362.899 160.896 363.862 164.324C364.827 167.759 365.669 171.432 366.59 174.965C367.502 178.466 368.485 181.803 369.715 184.433C373.347 192.2 378.853 198.178 383.465 203.202C385.783 205.729 387.858 207.994 389.401 210.145C390.946 212.299 391.896 214.255 392.055 216.15C392.125 216.988 392.005 217.601 391.783 218.069C391.561 218.536 391.211 218.913 390.732 219.24C389.728 219.925 388.295 220.31 386.594 220.805C384.957 221.28 383.124 221.848 381.61 222.944C380.056 224.068 378.867 225.724 378.457 228.288C378.245 229.613 378.522 231.037 379.093 232.486C379.667 233.939 380.558 235.469 381.64 237.033C383.803 240.157 386.802 243.512 389.773 246.765C392.762 250.036 395.717 253.2 397.861 255.996C398.933 257.392 399.779 258.669 400.321 259.795C400.869 260.935 401.061 261.83 400.954 262.503C400.678 264.23 399.869 265.116 398.812 265.652C397.683 266.223 396.24 266.412 394.653 266.591C393.139 266.762 391.452 266.926 390.128 267.557C389.443 267.883 388.826 268.344 388.362 269.013C387.899 269.681 387.623 270.51 387.542 271.52C387.476 272.351 387.708 273.236 388.084 274.12C388.463 275.012 389.016 275.966 389.66 276.954C390.937 278.911 392.677 281.153 394.274 283.399C395.896 285.68 397.407 288.013 398.344 290.283C399.282 292.554 399.608 294.671 398.988 296.567C398.835 297.037 398.402 297.456 397.467 297.745C396.529 298.035 395.212 298.149 393.553 298.087C390.247 297.965 385.809 297.157 380.853 295.959C370.954 293.565 359.162 289.66 350.577 286.78C346.256 285.33 340.75 283.879 335.017 282.416C329.272 280.95 323.295 279.472 317.992 277.965C312.677 276.454 308.105 274.932 305.151 273.39C303.661 272.613 302.677 271.877 302.19 271.21C301.956 270.889 301.861 270.616 301.849 270.385C301.837 270.162 301.898 269.905 302.104 269.599C303.158 268.031 304.948 266.395 307.077 264.727C309.201 263.063 311.581 261.427 313.804 259.815C316.002 258.221 318.056 256.644 319.427 255.145C320.749 253.701 321.707 252.028 320.974 250.377C320.318 248.9 318.957 248.129 317.536 247.645C316.135 247.167 314.448 246.901 313.05 246.589C311.575 246.26 310.402 245.878 309.676 245.228C309.332 244.92 309.089 244.551 308.963 244.078C308.835 243.595 308.818 242.96 308.999 242.113C309.169 241.321 309.685 240.398 310.549 239.344C311.406 238.3 312.556 237.183 313.911 236C316.634 233.624 320.068 231.08 323.457 228.386C326.818 225.714 330.115 222.908 332.44 220.075C334.749 217.263 336.235 214.263 335.644 211.245C335.49 210.459 335.09 209.86 334.516 209.431C333.964 209.017 333.281 208.783 332.578 208.639C331.199 208.357 329.438 208.375 327.852 208.315C326.196 208.253 324.685 208.108 323.545 207.588C322.99 207.335 322.543 207 322.211 206.557C321.88 206.115 321.634 205.524 321.538 204.712C321.387 203.432 321.725 202.363 322.5 201.245C323.298 200.092 324.533 198.925 326.148 197.467C329.355 194.572 333.842 190.72 338.401 184.042C342.975 177.342 345.484 168.667 347.853 162.015C349.052 158.647 350.201 155.834 351.538 153.946C352.858 152.082 354.241 151.276 355.944 151.548Z" stroke="#388700" stroke-width="1.5"/>
</g>
<path d="M347.874 243.645C347.371 242.263 348.395 240.802 349.865 240.802H362.885C364.355 240.802 365.378 242.263 364.876 243.645L361.672 252.456L361.672 280.001C361.672 282.926 359.3 285.298 356.375 285.298C353.449 285.298 351.078 282.926 351.078 280.001L351.078 252.456L347.874 243.645Z" fill="#838E95"/>
<path d="M347.874 243.645C347.371 242.263 348.395 240.802 349.865 240.802H362.885C364.355 240.802 365.378 242.263 364.876 243.645L361.672 252.456L361.672 280.001C361.672 282.926 359.3 285.298 356.375 285.298V285.298C353.449 285.298 351.078 282.926 351.078 280.001L351.078 252.456L347.874 243.645Z" stroke="#455660" stroke-width="1.5"/>
<path d="M290.69 252.468H365.38C368.013 252.468 370.148 254.602 370.148 257.235C370.148 259.868 368.013 262.003 365.38 262.003H290.69V252.468Z" fill="#838E95"/>
<path d="M290.69 252.468H365.38C368.013 252.468 370.148 254.602 370.148 257.235V257.235C370.148 259.868 368.013 262.003 365.38 262.003H290.69V252.468Z" stroke="#455660" stroke-width="1.5"/>
<path d="M128.598 240.701C136.716 244.345 142.37 252.5 142.37 261.976C142.37 271.451 136.716 279.604 128.598 283.248V285.283H119.062L118.461 285.275C105.867 284.956 95.7549 274.647 95.7549 261.976C95.7549 249.103 106.19 238.668 119.062 238.668H128.598V240.701Z" fill="#071D2B"/>
<path d="M128.598 240.701H127.848C127.848 240.997 128.021 241.264 128.291 241.385L128.598 240.701ZM142.37 261.976L143.12 261.976V261.976H142.37ZM128.598 283.248L128.29 282.564C128.021 282.685 127.848 282.953 127.848 283.248H128.598ZM128.598 285.283V286.033C129.012 286.033 129.348 285.697 129.348 285.283H128.598ZM119.062 285.283L119.053 286.033H119.062V285.283ZM118.461 285.275L118.442 286.025L118.451 286.025L118.461 285.275ZM95.7549 261.976H95.0049V261.976L95.7549 261.976ZM128.598 238.668H129.348C129.348 238.254 129.012 237.918 128.598 237.918V238.668ZM128.598 240.701L128.291 241.385C136.149 244.913 141.62 252.806 141.62 261.976H142.37H143.12C143.12 252.194 137.283 243.778 128.905 240.017L128.598 240.701ZM142.37 261.976L141.62 261.976C141.62 271.144 136.149 279.036 128.29 282.564L128.598 283.248L128.905 283.932C137.282 280.171 143.12 271.757 143.12 261.976L142.37 261.976ZM128.598 283.248H127.848V285.283H128.598H129.348V283.248H128.598ZM128.598 285.283V284.533H119.062V285.283V286.033H128.598V285.283ZM119.062 285.283L119.072 284.533L118.471 284.525L118.461 285.275L118.451 286.025L119.053 286.033L119.062 285.283ZM118.461 285.275L118.48 284.526C106.291 284.217 96.5049 274.239 96.5049 261.976L95.7549 261.976L95.0049 261.976C95.0049 275.055 105.442 285.696 118.442 286.025L118.461 285.275ZM95.7549 261.976H96.5049C96.5049 249.517 106.604 239.418 119.062 239.418V238.668V237.918C105.776 237.918 95.0049 248.689 95.0049 261.976H95.7549ZM119.062 238.668V239.418H128.598V238.668V237.918H119.062V238.668ZM128.598 238.668H127.848V240.701H128.598H129.348V238.668H128.598Z" fill="#071D2B"/>
<circle cx="127.538" cy="261.979" r="23.3075" fill="#455660"/>
<circle cx="127.538" cy="261.979" r="23.3075" stroke="#071D2B" stroke-width="1.5"/>
<circle cx="128.598" cy="261.99" r="14.832" fill="#071D2B"/>
<circle cx="128.597" cy="261.987" r="5.29716" fill="#455660"/>
<circle cx="128.597" cy="261.987" r="5.29716" stroke="#071D2B" stroke-width="1.5"/>
<path d="M192.163 242.844C200.281 246.488 205.936 254.643 205.936 264.118C205.935 273.593 200.281 281.746 192.163 285.391V287.425H182.628L182.026 287.418C169.432 287.099 159.321 276.789 159.32 264.118C159.32 251.246 169.756 240.811 182.628 240.811H192.163V242.844Z" fill="#071D2B"/>
<path d="M192.163 242.844H191.413C191.413 243.139 191.586 243.407 191.856 243.528L192.163 242.844ZM205.936 264.118L206.686 264.118V264.118H205.936ZM192.163 285.391L191.856 284.706C191.586 284.827 191.413 285.095 191.413 285.391H192.163ZM192.163 287.425V288.175C192.577 288.175 192.913 287.839 192.913 287.425H192.163ZM182.628 287.425L182.619 288.175H182.628V287.425ZM182.026 287.418L182.007 288.168L182.018 288.168L182.026 287.418ZM159.32 264.118H158.57V264.118L159.32 264.118ZM192.163 240.811H192.913C192.913 240.396 192.577 240.061 192.163 240.061V240.811ZM192.163 242.844L191.856 243.528C199.715 247.056 205.186 254.949 205.186 264.118H205.936H206.686C206.686 254.337 200.848 245.92 192.47 242.16L192.163 242.844ZM205.936 264.118L205.186 264.118C205.185 273.287 199.714 281.179 191.856 284.706L192.163 285.391L192.47 286.075C200.848 282.314 206.685 273.899 206.686 264.118L205.936 264.118ZM192.163 285.391H191.413V287.425H192.163H192.913V285.391H192.163ZM192.163 287.425V286.675H182.628V287.425V288.175H192.163V287.425ZM182.628 287.425L182.636 286.675L182.035 286.668L182.026 287.418L182.018 288.168L182.619 288.175L182.628 287.425ZM182.026 287.418L182.045 286.668C169.857 286.359 160.071 276.381 160.07 264.118L159.32 264.118L158.57 264.118C158.571 277.197 169.007 287.838 182.007 288.168L182.026 287.418ZM159.32 264.118H160.07C160.07 251.66 170.17 241.561 182.628 241.561V240.811V240.061C169.341 240.061 158.57 250.832 158.57 264.118H159.32ZM182.628 240.811V241.561H192.163V240.811V240.061H182.628V240.811ZM192.163 240.811H191.413V242.844H192.163H192.913V240.811H192.163Z" fill="#071D2B"/>
<path d="M62.9121 130.464C62.9121 115.899 74.653 104.068 89.2186 104.008C117.071 103.895 158.869 103.794 172.563 104.137C193.752 104.667 263.245 104.137 280.625 180.946C296.207 249.809 241.426 261.992 216.53 261.992C198.8 261.992 128.421 261.992 89.3683 261.992C74.7406 261.992 62.9121 250.134 62.9121 235.506V130.464Z" fill="#FFDDBF"/>
<path d="M62.9121 130.464C62.9121 115.899 74.653 104.068 89.2186 104.008C117.071 103.895 158.869 103.794 172.563 104.137C193.752 104.667 263.245 104.137 280.625 180.946C296.207 249.809 241.426 261.992 216.53 261.992C198.8 261.992 128.421 261.992 89.3683 261.992C74.7406 261.992 62.9121 250.134 62.9121 235.506V130.464Z" stroke="#E8A56A" stroke-width="1.5" stroke-linejoin="round"/>
<path d="M125.419 130.464C125.419 115.899 137.16 104.068 151.725 104.008C179.578 103.895 221.375 103.794 235.07 104.137C256.259 104.667 325.752 104.137 343.132 180.946C358.714 249.809 315.587 261.992 290.69 261.992C272.629 261.992 193.797 261.992 151.869 261.992C137.242 261.992 125.419 250.134 125.419 235.506V130.464Z" fill="#FFDDBF"/>
<path d="M125.419 130.464C125.419 115.899 137.16 104.068 151.725 104.008C179.578 103.895 221.375 103.794 235.07 104.137C256.259 104.667 325.752 104.137 343.132 180.946C358.714 249.809 315.587 261.992 290.69 261.992C272.629 261.992 193.797 261.992 151.869 261.992C137.242 261.992 125.419 250.134 125.419 235.506V130.464Z" stroke="#E8A56A" stroke-width="1.5" stroke-linejoin="round"/>
<rect x="76.6846" y="145.456" width="34.9612" height="58.2687" rx="5.29716" fill="#80BAFF"/>
<rect x="76.6846" y="145.456" width="34.9612" height="58.2687" rx="5.29716" stroke="#0070F6" stroke-width="1.5" stroke-linejoin="round"/>
<rect x="144.488" y="145.456" width="63.5659" height="58.2687" rx="5.29716" fill="#80BAFF"/>
<rect x="144.488" y="145.456" width="63.5659" height="58.2687" rx="5.29716" stroke="#0070F6" stroke-width="1.5" stroke-linejoin="round"/>
<path d="M176.271 145.456L176.271 203.725" stroke="#0070F6" stroke-width="1.5" stroke-linejoin="round"/>
<path d="M344.721 224.646L62.9119 224.646" stroke="#E8A56A" stroke-width="1.5" stroke-linejoin="round"/>
<path d="M341.543 234.193L62.9125 234.193" stroke="#E8A56A" stroke-width="1.5" stroke-linejoin="round"/>
<path d="M335.187 243.724L64.5018 243.724" stroke="#E8A56A" stroke-width="1.5" stroke-linejoin="round"/>
<path d="M324.592 253.255L69.7985 253.255" stroke="#E8A56A" stroke-width="1.5" stroke-linejoin="round"/>
<path d="M238.778 151.815C238.778 148.304 241.624 145.458 245.135 145.458H284.334C287.845 145.458 290.69 148.304 290.69 151.815V261.995C290.69 261.995 283.942 261.995 277.193 261.995C270.445 261.995 238.778 261.995 238.778 261.995V151.815Z" fill="#E8A56A"/>
<path d="M238.778 151.815C238.778 148.304 241.624 145.458 245.135 145.458H284.334C287.845 145.458 290.69 148.304 290.69 151.815V261.995C290.69 261.995 283.942 261.995 277.193 261.995C270.445 261.995 238.778 261.995 238.778 261.995V151.815Z" stroke="#78614A" stroke-width="1.5" stroke-linejoin="round"/>
<rect x="247.254" y="160.296" width="34.9612" height="43.4367" rx="5.29716" fill="#80BAFF"/>
<rect x="247.254" y="160.296" width="34.9612" height="43.4367" rx="5.29716" stroke="#0070F6" stroke-width="1.5" stroke-linejoin="round"/>
<rect x="277.978" y="210.094" width="6.35659" height="19.0698" rx="3.17829" fill="#E6E8EA"/>
<rect x="277.978" y="210.094" width="6.35659" height="19.0698" rx="3.17829" stroke="#455660" stroke-width="1.5" stroke-linejoin="round"/>
<circle cx="191.103" cy="264.109" r="23.3075" fill="#455660"/>
<circle cx="191.103" cy="264.109" r="23.3075" stroke="#071D2B" stroke-width="1.5"/>
<circle cx="192.163" cy="264.112" r="14.832" fill="#071D2B"/>
<circle cx="192.162" cy="264.109" r="5.29716" fill="#455660"/>
<circle cx="192.162" cy="264.109" r="5.29716" stroke="#071D2B" stroke-width="1.5"/>
<path d="M191.634 241.455C203.112 241.455 212.436 250.613 212.683 261.997H219.708C219.464 246.743 206.99 234.452 191.634 234.452C176.278 234.452 163.806 246.743 163.559 261.997H170.584C170.831 250.609 180.155 241.455 191.634 241.455Z" fill="#FFDDBF"/>
<path d="M191.634 241.455C203.112 241.455 212.436 250.613 212.683 261.997H219.708C219.464 246.743 206.99 234.452 191.634 234.452C176.278 234.452 163.806 246.743 163.559 261.997H170.584C170.831 250.609 180.155 241.455 191.634 241.455Z" stroke="#E8A56A" stroke-width="1.5"/>
<path d="M367.439 2.19824C367.439 2.19824 367.838 12.7412 372.136 17.0401C376.435 21.339 386.978 21.7377 386.978 21.7377C386.978 21.7377 376.435 22.1365 372.136 26.4353C367.838 30.7342 367.439 41.2772 367.439 41.2772C367.439 41.2772 367.04 30.7342 362.741 26.4353C358.442 22.1365 347.899 21.7377 347.899 21.7377C347.899 21.7377 358.442 21.339 362.741 17.0401C367.04 12.7412 367.439 2.19824 367.439 2.19824Z" fill="#FFBF00"/>
<path d="M39.1435 239.512C39.1435 239.512 39.5232 249.552 43.6172 253.646C47.7112 257.74 57.7518 258.12 57.7518 258.12C57.7518 258.12 47.7112 258.5 43.6172 262.594C39.5232 266.688 39.1435 276.728 39.1435 276.728C39.1435 276.728 38.7637 266.688 34.6697 262.594C30.5757 258.5 20.5352 258.12 20.5352 258.12C20.5352 258.12 30.5757 257.74 34.6697 253.646C38.7637 249.552 39.1435 239.512 39.1435 239.512Z" fill="#FFBF00"/>
<path d="M406.168 59.3994C406.168 59.3994 406.428 66.2591 409.225 69.0561C412.022 71.8531 418.881 72.1126 418.881 72.1126C418.881 72.1126 412.022 72.372 409.225 75.169C406.428 77.9661 406.168 84.8258 406.168 84.8258C406.168 84.8258 405.909 77.9661 403.112 75.169C400.315 72.372 393.455 72.1126 393.455 72.1126C393.455 72.1126 400.315 71.8531 403.112 69.0561C405.909 66.2591 406.168 59.3994 406.168 59.3994Z" fill="#80BAFF"/>
<path d="M27.9512 214.088L13.1191 214.088M20.5351 221.504L20.5351 206.672" stroke="#80BAFF" stroke-width="1.5" stroke-linecap="round" stroke-linejoin="round"/>
<path d="M307.116 29.7471V41.4008M312.938 35.5695H301.284" stroke="#FFBF00" stroke-width="1.5" stroke-linecap="round" stroke-linejoin="round"/>
<path d="M62.9121 64.7033L50.1989 64.7033M56.5554 71.0599L56.5554 58.3467" stroke="#80BAFF" stroke-width="1.5" stroke-linecap="round" stroke-linejoin="round"/>
</g>
<defs>
<clipPath id="clip0_10532_12758">
<rect width="432" height="296" fill="white"/>
</clipPath>
</defs>
</svg>
