<svg width="432" height="296" viewBox="0 0 432 296" fill="none" xmlns="http://www.w3.org/2000/svg">
<g clip-path="url(#clip0_10532_12774)">
<path d="M384.203 69.2722C433.338 164.892 364.26 249.422 276.27 273.463C212.396 290.924 97.4546 289.547 47.4081 244.12C-2.63828 198.694 13.5185 130.069 64.229 114.639C95.7397 105.046 117.695 99.6655 159.97 53.6643C212.644 -3.64398 330.935 -34.4138 384.203 69.2722Z" fill="#D9EAFF"/>
<path d="M66.8327 25.332C66.8327 25.332 66.4219 36.1932 61.9933 40.6218C57.5647 45.0504 46.7035 45.4612 46.7035 45.4612C46.7035 45.4612 57.5647 45.872 61.9933 50.3006C66.4219 54.7292 66.8327 65.5904 66.8327 65.5904C66.8327 65.5904 67.2435 54.7292 71.6721 50.3006C76.1007 45.872 86.9619 45.4612 86.9619 45.4612C86.9619 45.4612 76.1007 45.0504 71.6721 40.6218C67.2435 36.1932 66.8327 25.332 66.8327 25.332Z" fill="#FFBF00"/>
<path d="M391.549 240.404C391.549 240.404 391.213 249.265 387.601 252.878C383.988 256.49 375.127 256.825 375.127 256.825C375.127 256.825 383.988 257.161 387.601 260.773C391.213 264.386 391.549 273.247 391.549 273.247C391.549 273.247 391.884 264.386 395.496 260.773C399.109 257.161 407.97 256.825 407.97 256.825C407.97 256.825 399.109 256.49 395.496 252.878C391.884 249.265 391.549 240.404 391.549 240.404Z" fill="#FFBF00"/>
<path d="M30.8119 85.7207C30.8119 85.7207 30.5957 91.1513 28.2649 93.3656C25.934 95.5799 20.2176 95.7853 20.2176 95.7853C20.2176 95.7853 25.934 95.9907 28.2649 98.205C30.5957 100.419 30.8119 105.85 30.8119 105.85C30.8119 105.85 31.0281 100.419 33.359 98.205C35.6898 95.9907 41.4062 95.7853 41.4062 95.7853C41.4062 95.7853 35.6898 95.5799 33.359 93.3656C31.0281 91.1513 30.8119 85.7207 30.8119 85.7207Z" fill="#80BAFF"/>
<path d="M415.386 212.854L400.554 212.854M407.97 220.27L407.97 205.437" stroke="#80BAFF" stroke-width="1.5" stroke-linecap="round" stroke-linejoin="round"/>
<path d="M136.756 33.8076L121.924 33.8076M129.34 41.2236L129.34 26.3916" stroke="#80BAFF" stroke-width="1.5" stroke-linecap="round" stroke-linejoin="round"/>
<mask id="mask0_10532_12774" style="mask-type:alpha" maskUnits="userSpaceOnUse" x="16" y="0" width="385" height="284">
<path d="M384.203 69.2712C433.338 164.891 364.26 249.421 276.27 273.462C212.396 290.923 97.4546 289.546 47.4082 244.119C-2.63824 198.693 12.4143 130.28 63.1248 114.851C64.4155 114.458 66.6138 106.905 67.3625 104.256C69.4814 96.7615 83.174 88.3151 88.5512 86.2461C95.0108 83.7607 112.918 87.8336 118.745 91.0136C131.458 80.949 139.633 75.7932 159.97 53.6633C212.644 -3.64495 330.935 -34.4148 384.203 69.2712Z" fill="#D9EAFF"/>
</mask>
<g mask="url(#mask0_10532_12774)">
<path d="M48.318 133.941C70.1593 121.217 68.407 76.3665 115.391 90.6142C127.379 94.2459 156.356 116.138 145.36 151.084C137.36 176.481 160.649 195.046 151.176 215.796C130.934 260.088 64.0133 241.98 43.4672 208.024C22.1084 172.748 27.2131 146.233 48.318 133.916V133.941Z" fill="#BBED58"/>
<path d="M48.3219 133.941C70.1632 121.217 68.4108 76.3665 115.395 90.6142C106.176 89.7507 81.922 86.8046 81.922 109.916C81.922 120.811 91.395 130.259 90.3792 151.084C89.0839 177.624 63.4331 176.964 68.2077 208.024C71.5601 229.865 101.376 238.881 108.182 242.031C83.1411 242.208 55.4584 227.808 43.4965 208.024C22.1377 172.748 27.2424 146.233 48.3473 133.916L48.3219 133.941Z" fill="#96C734"/>
<path d="M48.318 133.941C70.1593 121.217 68.407 76.3665 115.391 90.6142C127.379 94.2459 156.356 116.138 145.36 151.084C137.36 176.481 160.649 195.046 151.176 215.796C130.934 260.088 64.0133 241.98 43.4672 208.024C22.1084 172.748 27.2131 146.233 48.318 133.916V133.941Z" stroke="#388700" stroke-width="1.5" stroke-linecap="round" stroke-linejoin="round"/>
<path fill-rule="evenodd" clip-rule="evenodd" d="M89.6389 212.878C86.3009 213.168 85.3325 213.779 85.9658 223.353C86.0482 224.6 86.1518 226.015 86.264 227.55C87.0134 237.796 87.2579 265.987 85.0751 271.637C84.7919 272.37 87.1793 282.333 87.359 273.255C91.297 271.467 92.7639 276.227 96.6541 274.314C96.2087 268.961 94.8727 245.723 94.6042 239.964C99.6938 232.157 109.005 217.227 109.122 214.263C109.217 211.905 104.393 219.2 99.8768 226.03C97.6826 229.348 95.5612 232.556 94.1117 234.494C93.924 232.186 93.8302 229.963 93.8302 227.94C93.8393 222.181 94.0141 212.498 89.6389 212.878Z" fill="#E8A56A"/>
<path d="M279.813 161.579C291.689 140.823 269.038 104.906 314.271 94.3551C325.81 91.6603 359.907 95.8893 367.427 129.722C372.886 154.313 400.748 158.508 402.801 179.988C407.169 225.851 343.776 242.669 310.881 224.569C276.696 205.77 268.337 181.633 279.801 161.558L279.813 161.579Z" fill="#BBED58"/>
<path d="M279.817 161.583C291.693 140.828 269.042 104.911 314.275 94.3593C306.313 98.0126 285.049 107.071 295.981 126.006C301.134 134.933 313.364 138.192 322.383 155.735C333.875 178.091 312.547 189.683 331.151 212.872C344.229 229.181 372.922 222.464 379.988 221.824C359.556 233.815 330.064 235.112 310.906 224.561C276.721 205.762 268.361 181.625 279.826 161.55L279.817 161.583Z" fill="#96C734"/>
<path d="M279.813 161.579C291.689 140.823 269.038 104.906 314.271 94.3551C325.81 91.6603 359.907 95.8893 367.427 129.722C372.886 154.313 400.748 158.508 402.801 179.988C407.169 225.85 343.776 242.669 310.881 224.569C276.696 205.77 268.337 181.633 279.801 161.558L279.813 161.579Z" stroke="#388700" stroke-width="1.5" stroke-linecap="round" stroke-linejoin="round"/>
<path d="M326.044 222.835C319.545 218.353 314.522 207.351 315.218 196.16C315.869 185.731 316.75 176.504 325.178 169.51C333.606 162.516 343.226 159.679 356.314 166.148C367.131 171.484 377.156 171.211 385.437 177.239C387.172 178.499 388.831 180.04 390.407 181.971C396.579 189.519 397.443 197.691 398.246 205.233C398.86 211.019 399.448 216.447 402.34 220.952C409.025 231.315 407.02 251.494 392.079 256.222C377.149 260.938 363.616 259.932 352.713 252.968C347.602 249.708 344.671 245.139 341.477 240.142C341.032 239.46 340.6 238.767 340.142 238.072C336.835 233.009 332.937 227.64 326.009 222.871L326.044 222.835Z" fill="#BBED58"/>
<path d="M315.229 196.154C314.533 207.345 319.543 218.334 326.055 222.829C332.984 227.598 336.881 232.967 340.189 238.03C331.802 205.537 341.852 200.095 348.126 196.688C349.9 195.733 351.36 194.939 352.041 193.746C353.507 191.179 352.84 188.851 352.17 186.449C351.416 183.773 350.634 180.997 352.687 177.664C357.698 169.555 377.803 174.357 385.46 177.221C377.179 171.193 367.154 171.466 356.337 166.13C343.237 159.673 333.629 162.498 325.201 169.492C316.773 176.486 315.892 185.713 315.241 196.142L315.229 196.154Z" fill="#96C734"/>
<path d="M326.044 222.835C319.545 218.353 314.522 207.351 315.218 196.16C315.869 185.731 316.75 176.504 325.178 169.51C333.606 162.516 343.226 159.679 356.314 166.148C367.131 171.484 377.156 171.211 385.437 177.239C387.172 178.499 388.831 180.04 390.407 181.971C396.579 189.519 397.443 197.691 398.246 205.233C398.86 211.019 399.448 216.447 402.34 220.952C409.025 231.315 407.02 251.494 392.079 256.222C377.149 260.938 363.616 259.932 352.713 252.968C347.602 249.708 344.671 245.139 341.477 240.142C341.032 239.46 340.6 238.767 340.142 238.072C336.835 233.009 332.937 227.64 326.009 222.871L326.044 222.835Z" stroke="#388700" stroke-width="1.5" stroke-linecap="round" stroke-linejoin="round"/>
</g>
<path d="M329.696 74.0506H228.761H204.984C199.704 74.0506 190.786 73.63 190.786 68.982C190.786 64.5334 192.404 62.5342 211.737 58.5064C231.071 54.4785 229.837 37.1995 247.947 32.8212C272.382 26.9138 267.28 45.9785 279.095 48.3952C290.91 50.8118 303.262 39.8026 315.613 44.0989C327.965 48.3951 320.447 54.3026 324.743 61.5525C329.039 68.8025 340.854 61.5526 341.391 68.2655C341.821 73.6358 333.774 74.3598 329.696 74.0506Z" fill="#FFFCFA"/>
<path opacity="0.5" d="M329.696 74.0489H228.761H204.984C199.704 74.0489 190.786 73.6283 190.786 68.9803C202.366 69.1354 228.227 68.3515 239.028 63.9752C252.53 58.5047 257.752 54.7834 265.468 57.8296C270.691 59.8919 266.996 64.9396 283.97 63.9752C296.295 63.2749 300.206 60.34 309.816 65.904C317.146 70.1474 333.232 72.5525 341.391 68.2638C341.821 73.6341 333.774 74.3582 329.696 74.0489Z" fill="#80BAFF"/>
<path d="M105.029 158.595L190.538 84.5781L276.046 158.595V294.974H108.208C106.452 294.974 105.029 293.551 105.029 291.795V158.595Z" fill="#FFFCFA"/>
<path d="M105.029 158.595L190.538 84.5781L276.046 158.595V294.974H108.208C106.452 294.974 105.029 293.551 105.029 291.795V158.595Z" stroke="#838E95" stroke-width="1.5" stroke-linejoin="round"/>
<path d="M171.41 223.881C171.41 222.126 172.833 220.703 174.588 220.703H189.609C191.364 220.703 192.787 222.126 192.787 223.881V267.958H171.41V223.881Z" fill="#D93511"/>
<path d="M278.686 154.539C280.816 156.4 281.034 159.635 279.173 161.765C277.312 163.894 274.076 164.112 271.947 162.251L190.348 90.9476L108.749 162.251C106.619 164.112 103.384 163.894 101.524 161.765C99.6626 159.635 99.8807 156.4 102.01 154.539L186.162 80.9149C188.559 78.8182 192.137 78.8182 194.533 80.9148L278.686 154.539Z" fill="#D93511"/>
<path d="M205.164 294.955L205.164 157.899L246.231 121.688L287.297 157.899L287.297 294.955H205.164Z" fill="#FFFCFA"/>
<path d="M205.164 294.955L205.164 157.899L246.231 121.688L287.297 157.899L287.297 294.955H205.164Z" stroke="#838E95" stroke-width="1.5" stroke-linejoin="round"/>
<path d="M242.285 118.59C244.829 116.367 248.626 116.367 251.17 118.59L292.312 154.542C294.441 156.403 294.658 159.638 292.798 161.767C290.937 163.896 287.702 164.115 285.572 162.254L246.727 128.31L207.883 162.254C205.753 164.115 202.518 163.897 200.657 161.767C198.796 159.638 199.015 156.403 201.144 154.542L242.285 118.59Z" fill="#D93511"/>
<path d="M105.029 267.965H287.297" stroke="#838E95" stroke-width="1.5" stroke-linejoin="round"/>
<path d="M160.44 294.955L160.44 268.515" stroke="#838E95" stroke-width="1.5"/>
<path d="M205.164 295.042L205.164 267.962" stroke="#838E95" stroke-width="1.5"/>
<path d="M161.284 276.954H205.163" stroke="#838E95" stroke-width="1.5"/>
<path d="M161.284 294.955H205.163" stroke="#838E95" stroke-width="1.5"/>
<path d="M161.284 285.95H205.163" stroke="#838E95" stroke-width="1.5"/>
<rect x="228.791" y="220.703" width="34.8784" height="33.7533" rx="3.17829" fill="#80BAFF"/>
<rect x="228.791" y="220.703" width="34.8784" height="33.7533" rx="3.17829" stroke="#0070F6" stroke-width="1.5"/>
<rect x="120.78" y="220.703" width="34.8784" height="33.7533" rx="3.17829" fill="#80BAFF"/>
<rect x="120.78" y="220.703" width="34.8784" height="33.7533" rx="3.17829" stroke="#0070F6" stroke-width="1.5"/>
<rect x="228.791" y="170.076" width="34.8784" height="33.7533" rx="3.17829" fill="#80BAFF"/>
<rect x="228.791" y="170.076" width="34.8784" height="33.7533" rx="3.17829" stroke="#0070F6" stroke-width="1.5"/>
<rect x="171.41" y="170.076" width="21.3771" height="33.7533" rx="3.17829" fill="#80BAFF"/>
<rect x="171.41" y="170.076" width="21.3771" height="33.7533" rx="3.17829" stroke="#0070F6" stroke-width="1.5"/>
<rect x="120.78" y="170.076" width="34.8784" height="33.7533" rx="3.17829" fill="#80BAFF"/>
<rect x="120.78" y="170.076" width="34.8784" height="33.7533" rx="3.17829" stroke="#0070F6" stroke-width="1.5"/>
<path d="M209.467 133.089C209.684 134.238 208.715 135.196 207.545 135.196H173.529C172.359 135.196 171.39 134.238 171.607 133.089C172.943 126.009 180.909 120.569 190.537 120.569C200.165 120.569 208.131 126.009 209.467 133.089Z" fill="#80BAFF"/>
<path d="M190.537 121.319C199.947 121.319 207.484 126.626 208.729 133.228C208.841 133.82 208.348 134.445 207.545 134.445H173.529C172.726 134.445 172.232 133.82 172.344 133.228C173.589 126.626 181.127 121.319 190.537 121.319Z" stroke="#0070F6" stroke-width="1.5"/>
<path d="M287.297 219.57H366.055V291.774C366.055 293.53 364.632 294.953 362.876 294.953H287.297V219.57Z" fill="#FFFCFA"/>
<path d="M287.297 219.57H366.055V291.774C366.055 293.53 364.632 294.953 362.876 294.953H287.297V219.57Z" stroke="#838E95" stroke-width="1.5" stroke-linejoin="round"/>
<path d="M287.297 206.075L358.105 206.075C359.5 206.075 360.839 206.625 361.831 207.607L370.266 215.951C371.612 217.283 370.669 219.577 368.776 219.577H287.297V206.075Z" fill="#D93511"/>
<path d="M298.548 234.086C298.548 232.915 299.496 231.967 300.667 231.967H352.684C353.855 231.967 354.803 232.915 354.803 234.086V294.973H298.548V234.086Z" fill="#E6E8EA"/>
<path d="M298.548 234.086C298.548 232.915 299.496 231.967 300.667 231.967H352.684C353.855 231.967 354.803 232.915 354.803 234.086V294.973H298.548V234.086Z" stroke="#838E95" stroke-width="1.5"/>
<path d="M211.69 288.525C212.319 281.224 215.295 275.328 223.876 272.194C230.963 269.6 235.242 264.725 241.52 263.659C242.835 263.434 244.238 263.378 245.777 263.546C251.797 264.198 255.762 267.657 259.423 270.847C262.231 273.295 264.87 275.586 268.116 276.35C275.596 278.091 283.968 285.641 279.487 294.951C279.487 294.951 220.528 294.951 212.543 294.951C212.543 294.951 211.417 291.695 211.69 288.525Z" fill="#BBED58"/>
<path d="M232.794 294.959C234.135 294.959 234.332 288.174 234.107 287.286C233.624 285.377 232.31 284.591 230.963 283.771C229.458 282.861 227.897 281.918 227.335 279.368C225.976 273.157 236.904 265.913 241.52 263.645C235.242 264.712 230.963 269.586 223.876 272.18C215.295 275.325 212.319 281.21 211.69 288.511C211.369 292.236 211.678 292.149 213.105 294.959C213.105 294.959 226.044 294.959 232.794 294.959Z" fill="#96C734"/>
<path d="M212.542 294.951C211.98 292.701 211.378 292.149 211.69 288.525C212.319 281.224 215.295 275.328 223.876 272.194C230.963 269.6 235.242 264.725 241.52 263.659C242.834 263.434 244.238 263.378 245.777 263.546C251.797 264.198 255.762 267.657 259.423 270.847C262.231 273.295 264.87 275.586 268.116 276.35C275.596 278.091 282.299 284.825 280.049 294.951H212.542Z" stroke="#388700" stroke-width="1.5" stroke-linecap="round" stroke-linejoin="round"/>
<path d="M149.968 294.961H92.3838C88.0704 289.369 83.6318 278.164 90.5852 270.599C97.61 262.957 104.323 266.917 113.416 268.848C122.197 270.713 117.012 263.062 124.691 263.062C136.954 263.061 136.286 274.173 149.969 280.47C161.171 285.625 152.628 293.957 149.968 294.961Z" fill="#BBED58"/>
<path d="M110.354 266.251C119.133 268.116 117.005 263.062 124.682 263.062C135.219 263.061 136.206 271.269 144.96 277.574C140.718 275.268 131.547 266.75 125.887 268.848C121.162 270.599 127.398 276.483 122.876 278.978C115.801 282.883 109.203 275.563 104.942 279.719C98.168 286.326 108.937 294.961 108.937 294.961H92.3827C88.0703 289.369 83.6329 278.164 90.5846 270.599C97.6077 262.957 101.264 264.32 110.354 266.251Z" fill="#96C734"/>
<path d="M124.691 263.062C117.012 263.062 119.135 268.116 110.354 266.251C101.261 264.32 97.6093 262.957 90.5846 270.599C84.4319 277.293 87.1995 286.837 90.9068 292.82C91.7717 294.216 93.3459 294.961 94.988 294.961H149.969C152.629 293.956 161.17 285.625 149.969 280.47C136.286 274.174 136.953 263.061 124.691 263.062Z" stroke="#388700" stroke-width="1.5"/>
</g>
<defs>
<clipPath id="clip0_10532_12774">
<rect width="432" height="296" fill="white"/>
</clipPath>
</defs>
</svg>
