<svg width="432" height="296" viewBox="0 0 432 296" fill="none" xmlns="http://www.w3.org/2000/svg">
<g clip-path="url(#clip0_10532_12741)">
<path d="M44.8312 71.6062C-4.30333 167.226 64.7744 251.756 152.765 275.797C216.638 293.258 331.58 291.881 381.626 246.454C431.672 201.028 415.516 132.403 364.805 116.973C333.294 107.38 311.339 101.999 269.064 55.9983C216.391 -1.30999 98.099 -32.0798 44.8312 71.6062Z" fill="#D9EAFF"/>
<path d="M378.563 9.66309C378.563 9.66309 378.962 20.2061 383.261 24.5049C387.559 28.8038 398.102 29.2026 398.102 29.2026C398.102 29.2026 387.559 29.6013 383.261 33.9002C378.962 38.199 378.563 48.742 378.563 48.742C378.563 48.742 378.164 38.199 373.865 33.9002C369.566 29.6013 359.023 29.2026 359.023 29.2026C359.023 29.2026 369.566 28.8038 373.865 24.5049C378.164 20.2061 378.563 9.66309 378.563 9.66309Z" fill="#FFBF00"/>
<path d="M41.7919 236.37C41.7919 236.37 42.1717 246.411 46.2657 250.505C50.3597 254.599 60.4003 254.978 60.4003 254.978C60.4003 254.978 50.3597 255.358 46.2657 259.452C42.1717 263.546 41.7919 273.587 41.7919 273.587C41.7919 273.587 41.4122 263.546 37.3182 259.452C33.2242 255.358 23.1836 254.978 23.1836 254.978C23.1836 254.978 33.2242 254.599 37.3182 250.505C41.4122 246.411 41.7919 236.37 41.7919 236.37Z" fill="#FFBF00"/>
<path d="M25.6013 205.65C25.6013 205.65 25.8236 211.528 28.2203 213.925C30.6169 216.321 36.4946 216.544 36.4946 216.544C36.4946 216.544 30.6169 216.766 28.2203 219.163C25.8236 221.559 25.6013 227.437 25.6013 227.437C25.6013 227.437 25.379 221.559 22.9824 219.163C20.5858 216.766 14.708 216.544 14.708 216.544C14.708 216.544 20.5858 216.321 22.9824 213.925C25.379 211.528 25.6013 205.65 25.6013 205.65Z" fill="#80BAFF"/>
<path d="M417.292 83.2884L399.282 83.2884M408.287 92.2935L408.287 74.2832" stroke="#80BAFF" stroke-width="1.5" stroke-linecap="round" stroke-linejoin="round"/>
<path d="M327.775 37.2041V48.8578M333.597 43.0265H321.943" stroke="#FFBF00" stroke-width="1.5" stroke-linecap="round" stroke-linejoin="round"/>
<path d="M58.1445 154.806L45.4314 154.806M51.7879 161.162L51.7879 148.449" stroke="#80BAFF" stroke-width="1.5" stroke-linecap="round" stroke-linejoin="round"/>
<mask id="mask0_10532_12741" style="mask-type:alpha" maskUnits="userSpaceOnUse" x="28" y="3" width="384" height="284">
<path d="M44.8312 71.6062C-4.30333 167.226 64.7744 251.756 152.765 275.797C216.638 293.258 331.58 291.881 381.626 246.454C431.307 201.359 415.748 133.403 365.909 117.319C365.543 117.201 366.279 117.298 365.909 117.186C366.484 98.3286 346.84 89.4715 343.661 110.299C321.575 102.579 301.604 91.406 269.064 55.9983C216.391 -1.30999 98.099 -32.0798 44.8312 71.6062Z" fill="#D9EAFF"/>
</mask>
<g mask="url(#mask0_10532_12741)">
<path d="M193.491 56.8533H111.311H91.9526C87.6531 56.8533 80.3926 56.5108 80.3926 52.7265C80.3926 49.1046 81.7099 47.4769 97.4507 44.1975C113.191 40.9181 112.187 26.8499 126.932 23.2851C146.827 18.4754 142.673 33.9976 152.292 35.9651C161.911 37.9327 171.968 28.9692 182.025 32.4672C192.081 35.9651 185.96 40.7749 189.458 46.6776C192.956 52.5804 202.575 46.6776 203.012 52.1432C203.362 56.5156 196.81 57.1051 193.491 56.8533Z" fill="#FFFCFA"/>
<path opacity="0.5" d="M193.491 56.8659H111.311H91.9526C87.6531 56.8659 80.3926 56.5235 80.3926 52.7392C89.8208 52.8654 110.876 52.2272 119.67 48.664C130.663 44.2101 134.915 41.1803 141.197 43.6605C145.45 45.3395 142.441 49.4493 156.261 48.664C166.296 48.0939 169.48 45.7044 177.305 50.2345C183.272 53.6894 196.369 55.6475 203.012 52.1558C203.362 56.5282 196.81 57.1177 193.491 56.8659Z" fill="#80BAFF"/>
<path opacity="0.5" d="M204.521 70.9719C215.228 70.7619 209.744 80.4875 229.439 85.6644C249.134 90.8414 249.994 86.3436 260.304 90.3138C268.792 93.5826 265.651 112.076 307.284 118.672C343.502 124.411 393.256 144.395 504.061 141.445L515.65 218.916L-64.9319 257.336C-66.8423 257.462 -68.5447 256.538 -68.7342 255.271L-80.0774 179.441C-80.2331 178.4 -79.2998 177.417 -77.824 177.046C28.8657 150.215 102.751 105.906 112.963 104.571C123.255 103.225 124.774 108.148 134.184 105.707C149.188 101.815 193.521 71.2083 204.239 70.9975C204.338 70.9955 204.436 70.9956 204.533 70.9953C204.529 70.9876 204.525 70.9796 204.521 70.9719Z" fill="#80BAFF"/>
<path d="M92.8322 114.471C104.3 97.6731 105.405 70.9778 116.11 72.6889C126.816 74.4 128.257 102.051 134.36 115.102C143.469 134.58 162 145.145 162.893 155.815C163.697 165.404 147.494 159.462 145.57 171.501C143.707 183.157 175.675 205.945 174.217 215.07C172.617 225.081 157.88 217.267 157.148 226.476C156.614 233.196 175.234 247.712 171.679 258.593C169.035 266.687 130.676 254.07 108.821 246.739C86.9667 239.408 40.8799 231.943 46.607 223.423C52.3342 214.904 73.2478 205.929 70.5556 199.866C67.8635 193.803 53.221 198.224 55.2464 188.754C57.3452 178.942 91.8412 163.469 89.1715 149.832C87.9754 143.722 72.306 150.846 71.1986 141.441C70.3007 133.814 81.3642 131.268 92.8322 114.471Z" fill="#BBED58"/>
<path d="M92.8322 114.471C104.3 97.6731 105.405 70.9778 116.11 72.6889C105.813 80.6576 112.277 102.332 107.776 116.859C103.276 131.387 96.3629 134.716 98.8541 139.505C101.345 144.294 116.868 138.72 119.505 148.109C122.743 159.639 96.8818 184.388 100.094 199.799C102.556 211.614 115.174 206.997 122.547 220.946C127.842 230.962 115.858 240.279 126.446 252.496C120.108 250.51 114.001 248.476 108.821 246.739C86.9667 239.408 40.8799 231.943 46.6071 223.423C52.3342 214.904 73.2478 205.929 70.5556 199.866C67.8635 193.802 53.221 198.224 55.2464 188.754C57.3452 178.942 91.8412 163.469 89.1715 149.832C87.9754 143.722 72.306 150.846 71.1986 141.441C70.3007 133.814 81.3642 131.268 92.8322 114.471Z" fill="#96C734"/>
<path d="M115.992 73.4295C118.333 73.8037 120.274 75.6105 121.968 78.575C123.656 81.5276 125.012 85.4773 126.239 89.8454C127.469 94.2207 128.543 98.9093 129.713 103.399C130.874 107.856 132.123 112.089 133.681 115.42C138.291 125.278 145.281 132.868 151.155 139.269C154.105 142.483 156.756 145.377 158.73 148.128C160.705 150.882 161.939 153.41 162.146 155.878C162.238 156.973 162.083 157.791 161.781 158.426C161.48 159.06 161.007 159.567 160.374 159.999C159.061 160.894 157.197 161.394 155.046 162.019C152.959 162.626 150.658 163.34 148.762 164.712C146.827 166.112 145.343 168.172 144.829 171.383C144.568 173.021 144.907 174.795 145.628 176.621C146.35 178.451 147.475 180.385 148.849 182.37C151.594 186.336 155.404 190.598 159.188 194.741C162.99 198.903 166.761 202.94 169.499 206.509C170.867 208.292 171.953 209.929 172.652 211.381C173.358 212.847 173.622 214.034 173.476 214.951C173.114 217.215 172.044 218.4 170.639 219.111C169.162 219.859 167.287 220.101 165.272 220.328C163.332 220.547 161.225 220.755 159.576 221.54C158.73 221.943 157.974 222.51 157.409 223.326C156.844 224.142 156.5 225.16 156.401 226.416C156.32 227.429 156.602 228.52 157.074 229.632C157.55 230.752 158.247 231.955 159.065 233.209C160.688 235.698 162.893 238.537 164.935 241.408C167.001 244.315 168.936 247.302 170.14 250.215C171.344 253.13 171.777 255.879 170.966 258.36C170.741 259.048 170.117 259.614 168.894 259.992C167.667 260.37 165.964 260.515 163.843 260.436C159.611 260.28 153.944 259.248 147.63 257.721C135.015 254.671 119.992 249.695 109.06 246.028C103.567 244.185 96.5617 242.337 89.2601 240.474C81.9473 238.608 74.3321 236.726 67.5763 234.806C60.8076 232.882 54.9671 230.938 51.1854 228.965C49.2816 227.971 47.9949 227.017 47.3457 226.128C47.0298 225.695 46.889 225.311 46.8705 224.968C46.8524 224.632 46.947 224.262 47.2295 223.842C48.5915 221.816 50.8925 219.718 53.6066 217.591C56.3161 215.468 59.3533 213.379 62.1787 211.33C64.978 209.301 67.5788 207.304 69.3085 205.413C70.9891 203.576 72.1186 201.539 71.2407 199.561C70.4404 197.759 68.7748 196.803 66.9846 196.193C65.2143 195.59 63.0945 195.257 61.2953 194.856C59.4173 194.436 57.8747 193.941 56.9062 193.074C56.4411 192.658 56.1083 192.154 55.937 191.509C55.7634 190.855 55.7439 190.012 55.9795 188.911C56.2053 187.856 56.8883 186.651 57.9967 185.299C59.0975 183.957 60.571 182.525 62.3009 181.016C65.772 177.986 70.1569 174.739 74.464 171.315C78.7424 167.914 82.9257 164.351 85.8721 160.762C88.8018 157.194 90.6417 153.438 89.9079 149.688C89.722 148.739 89.242 148.02 88.5513 147.502C87.8818 147.001 87.046 146.711 86.1651 146.531C84.4305 146.176 82.2173 146.2 80.1798 146.123C78.0718 146.044 76.1106 145.86 74.6175 145.178C73.8864 144.845 73.2871 144.399 72.8399 143.801C72.3937 143.205 72.069 142.417 71.9437 141.353C71.7448 139.664 72.1953 138.254 73.2037 136.798C74.2362 135.308 75.8265 133.806 77.8809 131.952C81.9649 128.265 87.6614 123.375 93.452 114.894C99.2568 106.391 102.441 95.3804 105.464 86.8906C106.99 82.6046 108.461 78.9958 110.182 76.5664C111.886 74.161 113.714 73.0654 115.992 73.4295Z" stroke="#388700" stroke-width="1.5"/>
<path d="M389.721 185.01C398.793 171.722 399.667 150.604 408.136 151.958C416.604 153.311 417.744 175.185 422.573 185.51C429.778 200.918 444.437 209.276 445.145 217.717C445.78 225.302 432.963 220.602 431.44 230.126C429.967 239.346 455.256 257.374 454.102 264.592C452.836 272.511 441.178 266.33 440.599 273.615C440.177 278.931 454.907 290.414 452.095 299.021C450.003 305.424 419.658 295.443 402.37 289.644C385.081 283.845 348.623 277.939 353.153 271.2C357.684 264.46 374.228 257.36 372.099 252.564C369.969 247.768 358.386 251.265 359.988 243.774C361.648 236.012 388.937 223.772 386.825 212.984C385.879 208.15 373.483 213.786 372.607 206.346C371.897 200.312 380.649 198.298 389.721 185.01Z" fill="#BBED58"/>
<path d="M389.721 185.01C398.793 171.722 399.667 150.604 408.136 151.958C399.99 158.262 405.103 175.407 401.543 186.9C397.983 198.392 392.514 201.026 394.485 204.815C396.455 208.603 408.735 204.193 410.821 211.62C413.383 220.742 392.924 240.32 395.465 252.512C397.413 261.858 407.395 258.205 413.228 269.24C417.416 277.164 407.936 284.534 416.312 294.198C411.298 292.628 406.467 291.018 402.37 289.644C385.081 283.845 348.623 277.939 353.153 271.2C357.684 264.46 374.228 257.36 372.099 252.564C369.969 247.768 358.386 251.265 359.988 243.774C361.648 236.011 388.937 223.772 386.825 212.984C385.879 208.15 373.483 213.786 372.607 206.346C371.897 200.312 380.649 198.298 389.721 185.01Z" fill="#96C734"/>
<path d="M408.017 152.698C409.799 152.983 411.302 154.362 412.634 156.692C413.959 159.01 415.027 162.119 415.997 165.573C416.97 169.033 417.818 172.732 418.745 176.291C419.664 179.817 420.654 183.179 421.893 185.827C425.551 193.651 431.097 199.671 435.743 204.733C438.078 207.277 440.169 209.56 441.724 211.727C443.28 213.897 444.237 215.869 444.397 217.78C444.468 218.625 444.347 219.243 444.123 219.716C443.899 220.187 443.546 220.568 443.063 220.897C442.05 221.588 440.606 221.976 438.892 222.475C437.244 222.954 435.398 223.525 433.873 224.628C432.31 225.76 431.113 227.426 430.7 230.007C430.487 231.341 430.765 232.774 431.341 234.233C431.918 235.696 432.815 237.238 433.905 238.813C436.084 241.96 439.105 245.339 442.097 248.616C445.108 251.911 448.085 255.098 450.245 257.915C451.325 259.322 452.177 260.607 452.723 261.742C453.276 262.891 453.47 263.794 453.362 264.473C453.083 266.215 452.267 267.109 451.2 267.649C450.062 268.226 448.608 268.416 447.009 268.596C445.484 268.769 443.786 268.933 442.453 269.568C441.764 269.896 441.143 270.36 440.677 271.033C440.211 271.705 439.932 272.539 439.852 273.555C439.785 274.392 440.018 275.283 440.396 276.173C440.778 277.071 441.335 278.032 441.984 279.027C443.27 280.998 445.023 283.256 446.631 285.518C448.265 287.816 449.788 290.167 450.733 292.454C451.678 294.743 452.006 296.876 451.382 298.788C451.226 299.264 450.788 299.687 449.845 299.979C448.9 300.271 447.572 300.385 445.902 300.323C442.57 300.2 438.1 299.386 433.107 298.179C423.135 295.768 411.257 291.834 402.608 288.933C398.256 287.473 392.71 286.01 386.935 284.536C381.148 283.059 375.126 281.572 369.785 280.053C364.43 278.531 359.824 276.997 356.848 275.444C355.347 274.661 354.356 273.92 353.864 273.247C353.627 272.923 353.531 272.647 353.518 272.414C353.506 272.187 353.568 271.927 353.776 271.618C354.839 270.037 356.642 268.39 358.787 266.71C360.928 265.033 363.325 263.385 365.564 261.76C367.778 260.155 369.847 258.566 371.227 257.057C372.558 255.602 373.522 253.92 372.784 252.259C372.125 250.774 370.755 249.999 369.324 249.511C367.913 249.03 366.216 248.762 364.807 248.448C363.321 248.116 362.138 247.731 361.405 247.075C361.058 246.764 360.813 246.391 360.686 245.913C360.557 245.426 360.538 244.785 360.721 243.931C360.892 243.132 361.414 242.202 362.285 241.141C363.147 240.088 364.306 238.962 365.671 237.771C368.414 235.377 371.874 232.814 375.288 230.1C378.673 227.41 381.993 224.583 384.336 221.73C386.661 218.898 388.156 215.878 387.561 212.84C387.407 212.05 387.005 211.447 386.428 211.015C385.872 210.599 385.186 210.363 384.477 210.219C383.089 209.935 381.316 209.953 379.718 209.893C378.049 209.83 376.526 209.684 375.376 209.16C374.817 208.904 374.366 208.567 374.031 208.12C373.697 207.673 373.448 207.077 373.352 206.258C373.2 204.967 373.541 203.89 374.322 202.763C375.127 201.601 376.371 200.424 377.998 198.955C381.228 196.039 385.747 192.16 390.34 185.433C394.947 178.685 397.474 169.947 399.861 163.245C401.068 159.854 402.226 157.018 403.573 155.116C404.904 153.238 406.298 152.424 408.017 152.698Z" stroke="#388700" stroke-width="1.5"/>
<path d="M330.503 142.6C342.299 125.322 343.435 97.8622 354.447 99.6223C365.459 101.382 366.942 129.825 373.22 143.249C382.589 163.285 401.651 174.153 402.57 185.128C403.396 194.992 386.73 188.88 384.751 201.264C382.834 213.253 415.718 236.694 414.218 246.08C412.572 256.378 397.413 248.34 396.66 257.812C396.11 264.725 415.264 279.656 411.607 290.849C408.887 299.174 369.43 286.196 346.95 278.655C324.469 271.114 277.063 263.435 282.954 254.672C288.845 245.909 310.358 236.677 307.589 230.44C304.819 224.203 289.758 228.752 291.841 219.011C294 208.917 329.483 193.002 326.737 178.974C325.507 172.689 309.389 180.018 308.25 170.343C307.326 162.497 318.707 159.879 330.503 142.6Z" fill="#BBED58"/>
<path d="M330.503 142.6C342.299 125.322 343.435 97.8622 354.447 99.6223C343.855 107.819 350.504 130.114 345.875 145.057C341.246 160.001 334.135 163.426 336.697 168.352C339.26 173.278 355.227 167.544 357.939 177.201C361.27 189.062 334.668 214.519 337.972 230.372C340.505 242.525 353.484 237.776 361.068 252.124C366.515 262.427 354.188 272.011 365.079 284.577C358.559 282.535 352.278 280.442 346.95 278.655C324.469 271.114 277.063 263.435 282.954 254.672C288.845 245.909 310.358 236.677 307.589 230.44C304.819 224.203 289.758 228.752 291.841 219.011C294 208.917 329.483 193.001 326.737 178.974C325.507 172.689 309.389 180.017 308.25 170.343C307.326 162.497 318.707 159.879 330.503 142.6Z" fill="#96C734"/>
<path d="M354.329 100.363C356.747 100.749 358.748 102.614 360.492 105.666C362.23 108.705 363.624 112.771 364.887 117.265C366.151 121.765 367.258 126.589 368.461 131.206C369.655 135.79 370.939 140.143 372.54 143.567C377.281 153.704 384.468 161.509 390.511 168.094C393.546 171.4 396.273 174.378 398.304 177.209C400.337 180.043 401.61 182.647 401.823 185.191C401.917 186.321 401.758 187.166 401.446 187.824C401.134 188.48 400.644 189.003 399.99 189.449C398.636 190.372 396.714 190.887 394.503 191.53C392.357 192.154 389.994 192.889 388.047 194.298C386.061 195.734 384.537 197.848 384.01 201.145C383.742 202.825 384.09 204.646 384.83 206.522C385.572 208.403 386.728 210.391 388.141 212.431C390.964 216.509 394.881 220.893 398.774 225.154C402.684 229.435 406.565 233.588 409.382 237.26C410.789 239.095 411.908 240.78 412.628 242.276C413.354 243.786 413.629 245.011 413.477 245.961C413.103 248.297 411.998 249.522 410.547 250.257C409.024 251.028 407.091 251.276 405.019 251.51C403.022 251.736 400.858 251.949 399.167 252.754C398.298 253.168 397.526 253.748 396.947 254.584C396.368 255.42 396.015 256.464 395.912 257.753C395.83 258.79 396.119 259.908 396.604 261.051C397.093 262.201 397.809 263.437 398.65 264.726C400.319 267.285 402.586 270.204 404.687 273.16C406.813 276.15 408.806 279.224 410.044 282.223C411.284 285.224 411.73 288.058 410.894 290.616C410.66 291.333 410.011 291.918 408.749 292.307C407.484 292.698 405.729 292.847 403.546 292.766C399.191 292.605 393.36 291.543 386.865 289.972C373.887 286.835 358.433 281.716 347.189 277.944C341.539 276.049 334.334 274.149 326.823 272.232C319.301 270.313 311.468 268.376 304.518 266.401C297.556 264.422 291.547 262.422 287.654 260.391C285.695 259.369 284.367 258.386 283.696 257.467C283.37 257.02 283.224 256.62 283.204 256.262C283.186 255.911 283.284 255.526 283.577 255.09C284.98 253.003 287.348 250.843 290.14 248.656C292.928 246.472 296.054 244.323 298.96 242.216C301.839 240.128 304.512 238.074 306.289 236.131C308.018 234.242 309.171 232.156 308.274 230.136C307.455 228.29 305.748 227.31 303.909 226.684C302.089 226.063 299.911 225.721 298.059 225.307C296.127 224.876 294.535 224.367 293.534 223.471C293.053 223.04 292.708 222.518 292.531 221.851C292.351 221.174 292.331 220.303 292.574 219.167C292.807 218.077 293.512 216.835 294.653 215.443C295.786 214.061 297.304 212.588 299.084 211.034C302.655 207.918 307.166 204.576 311.595 201.055C315.996 197.556 320.298 193.894 323.327 190.204C326.34 186.535 328.226 182.677 327.473 178.829C327.283 177.858 326.792 177.124 326.086 176.595C325.4 176.082 324.544 175.785 323.64 175.6C321.858 175.236 319.585 175.259 317.487 175.18C315.319 175.099 313.298 174.91 311.758 174.207C311.003 173.862 310.384 173.402 309.921 172.784C309.459 172.167 309.125 171.353 308.995 170.255C308.79 168.511 309.256 167.056 310.295 165.555C311.359 164.02 312.996 162.473 315.109 160.566C319.31 156.774 325.168 151.745 331.122 143.023C337.091 134.28 340.366 122.958 343.476 114.223C345.046 109.815 346.559 106.1 348.331 103.598C350.086 101.121 351.974 99.9865 354.329 100.363Z" stroke="#388700" stroke-width="1.5"/>
<path d="M34.8117 146.028C43.8837 132.74 44.7576 111.622 53.2264 112.975C61.6952 114.329 62.8353 136.203 67.6633 146.527C74.8688 161.936 89.5282 170.293 90.2353 178.734C90.8708 186.32 78.0535 181.619 76.5312 191.143C75.0574 200.364 100.347 218.391 99.193 225.609C97.9271 233.529 86.2691 227.347 85.69 234.632C85.2674 239.948 99.9979 251.431 97.1854 260.039C95.0934 266.442 64.7491 256.461 47.4604 250.662C30.1717 244.862 -6.28629 238.957 -1.75571 232.217C2.77486 225.478 19.3191 218.378 17.1894 213.581C15.0597 208.785 3.47641 212.283 5.07866 204.792C6.73892 197.029 34.0278 184.789 31.9159 174.001C30.9696 169.168 18.574 174.804 17.698 167.363C16.9877 161.33 25.7397 159.316 34.8117 146.028Z" fill="#BBED58"/>
<path d="M34.8117 146.028C43.8837 132.74 44.7576 111.622 53.2264 112.975C45.0804 119.279 50.1937 136.425 46.6337 147.917C43.0737 159.41 37.6048 162.044 39.5755 165.832C41.5463 169.621 53.8261 165.211 55.912 172.638C58.4736 181.76 38.0153 201.338 40.5563 213.529C42.5043 222.875 52.4855 219.223 58.3184 230.257C62.5071 238.181 53.0272 245.552 61.4028 255.216C56.3886 253.645 51.5579 252.036 47.4604 250.661C30.1717 244.862 -6.28628 238.957 -1.7557 232.217C2.77488 225.478 19.3191 218.378 17.1894 213.581C15.0597 208.785 3.47643 212.283 5.07867 204.792C6.73893 197.029 34.0278 184.789 31.9159 174.001C30.9696 169.168 18.574 174.804 17.698 167.363C16.9877 161.33 25.7397 159.316 34.8117 146.028Z" fill="#96C734"/>
<path d="M53.1081 113.716C54.8898 114.001 56.3931 115.38 57.725 117.71C59.0501 120.028 60.1177 123.137 61.0882 126.59C62.0607 130.05 62.9089 133.75 63.8362 137.309C64.755 140.835 65.7452 144.196 66.9838 146.845C70.6423 154.668 76.1881 160.689 80.8336 165.75C83.1692 168.295 85.2597 170.578 86.8144 172.745C88.3709 174.914 89.3282 176.887 89.4883 178.797C89.559 179.642 89.4378 180.261 89.2134 180.733C88.9896 181.204 88.6363 181.585 88.1533 181.915C87.1408 182.605 85.6965 182.994 83.983 183.492C82.3344 183.971 80.4885 184.543 78.9639 185.646C77.4005 186.777 76.2035 188.444 75.7909 191.025C75.5778 192.359 75.8562 193.791 76.4319 195.25C77.0091 196.714 77.9056 198.256 78.9959 199.831C81.1746 202.978 84.1954 206.357 87.1882 209.633C90.1985 212.929 93.1757 216.116 95.3362 218.932C96.4154 220.339 97.2681 221.624 97.8141 222.759C98.3669 223.908 98.561 224.812 98.4525 225.491C98.1741 227.232 97.3578 228.127 96.2912 228.667C95.1526 229.243 93.6987 229.433 92.1 229.614C90.5746 229.786 88.8769 229.951 87.5438 230.586C86.8548 230.914 86.234 231.378 85.7679 232.05C85.302 232.723 85.0232 233.557 84.9424 234.573C84.8759 235.41 85.1089 236.3 85.4872 237.191C85.869 238.089 86.4261 239.049 87.0753 240.044C88.3612 242.016 90.1134 244.273 91.7222 246.536C93.3556 248.834 94.8788 251.184 95.8235 253.472C96.7687 255.76 97.0971 257.894 96.4725 259.806C96.3168 260.282 95.879 260.705 94.9363 260.996C93.9904 261.288 92.6632 261.403 90.9926 261.341C87.661 261.218 83.1905 260.404 78.1979 259.197C68.2258 256.786 56.3476 252.852 47.6988 249.951C43.3466 248.491 37.8008 247.027 32.0255 245.554C26.2386 244.077 20.2172 242.589 14.8755 241.071C9.52091 239.549 4.91481 238.014 1.93889 236.462C0.438135 235.678 -0.553213 234.938 -1.04476 234.265C-1.28177 233.94 -1.3785 233.665 -1.39116 233.431C-1.40337 233.205 -1.34121 232.945 -1.13347 232.636C-0.0706746 231.055 1.73299 229.408 3.87787 227.727C6.01841 226.05 8.41536 224.402 10.6551 222.778C12.8685 221.173 14.9375 219.584 16.3181 218.075C17.6493 216.62 18.6123 214.937 17.8751 213.277C17.2154 211.791 15.8459 211.016 14.415 210.528C13.004 210.048 11.3063 209.78 9.89822 209.465C8.41141 209.133 7.22848 208.748 6.49604 208.093C6.14899 207.782 5.90392 207.409 5.77691 206.931C5.64749 206.443 5.62917 205.803 5.8119 204.948C5.98285 204.149 6.50489 203.22 7.37539 202.158C8.23825 201.106 9.39656 199.98 10.7622 198.788C13.5047 196.395 16.9648 193.832 20.3786 191.118C23.7634 188.427 27.084 185.601 29.4264 182.748C31.7521 179.915 33.2467 176.895 32.6522 173.857C32.4976 173.067 32.0958 172.465 31.5188 172.033C30.9631 171.616 30.2764 171.381 29.5683 171.236C28.1795 170.952 26.4071 170.971 24.809 170.911C23.1402 170.848 21.6168 170.702 20.4671 170.177C19.9079 169.922 19.4571 169.585 19.1222 169.137C18.788 168.691 18.5391 168.094 18.4427 167.275C18.2907 165.984 18.6322 164.907 19.4128 163.78C20.2175 162.619 21.4617 161.442 23.0891 159.973C26.3191 157.057 30.8382 153.177 35.4308 146.451C40.0376 139.703 42.5653 130.964 44.9515 124.263C46.1592 120.871 47.3168 118.036 48.6639 116.134C49.9944 114.256 51.3888 113.441 53.1081 113.716Z" stroke="#388700" stroke-width="1.5"/>
</g>
<ellipse opacity="0.3" cx="227.947" cy="286.129" rx="170.862" ry="6.57825" fill="#838E95"/>
<path opacity="0.5" d="M225.874 82.0488V276.395H104.502C112.317 267.32 141.029 232.156 164.623 194.346C200.544 136.781 225.874 82.0488 225.874 82.0488Z" fill="#80BAFF"/>
<path opacity="0.5" d="M225.875 82.0488V276.395H347.247C339.432 267.32 310.72 232.156 287.126 194.346C251.206 136.781 225.875 82.0488 225.875 82.0488Z" fill="#4198FF"/>
<path d="M225.873 82.0498C225.873 82.0498 251.204 136.782 287.125 194.347C310.719 232.157 339.431 267.321 347.246 276.396H104.501C112.316 267.32 141.028 232.157 164.621 194.347C200.542 136.781 225.873 82.0498 225.873 82.0498Z" fill="#FF9780"/>
<path opacity="0.5" d="M225.875 82.0488V276.395H347.247C339.432 267.32 310.72 232.156 287.126 194.346C251.206 136.781 225.875 82.0488 225.875 82.0488Z" fill="#FFFCFA"/>
<path d="M225.872 273.238H168.455C172.152 268.121 185.735 248.295 196.896 226.977C213.887 194.523 225.869 163.666 225.872 163.658V273.238Z" fill="#455660"/>
<path d="M225.876 163.658C225.879 163.666 237.861 194.523 254.851 226.977C266.013 248.295 279.596 268.121 283.293 273.238H225.876V163.658Z" fill="#455660"/>
<path d="M376.067 260.123C377.678 260.123 378.983 261.429 378.983 263.039L378.983 285.532L373.151 285.532L373.151 263.039C373.151 261.429 374.457 260.123 376.067 260.123Z" fill="#E8A56A"/>
<path d="M376.067 260.123C377.678 260.123 378.983 261.429 378.983 263.039L378.983 285.532L373.151 285.532L373.151 263.039C373.151 261.429 374.457 260.123 376.067 260.123V260.123Z" stroke="#78614B" stroke-width="1.5"/>
<path d="M75.0672 260.123C76.6778 260.123 77.9834 261.429 77.9834 263.039L77.9834 285.532L72.151 285.532L72.151 263.039C72.151 261.429 73.4566 260.123 75.0672 260.123Z" fill="#E8A56A"/>
<path d="M75.0672 260.123C76.6778 260.123 77.9834 261.429 77.9834 263.039L77.9834 285.532L72.151 285.532L72.151 263.039C72.151 261.429 73.4566 260.123 75.0672 260.123V260.123Z" stroke="#78614B" stroke-width="1.5"/>
<path opacity="0.5" d="M196.902 226.977C185.741 248.295 172.158 268.121 168.461 273.238L149.77 237.007C149.77 237.007 161.416 232.964 180.678 216.794C202.398 198.56 225.88 163.65 225.877 163.658C225.877 163.658 225.881 163.663 225.888 163.673C226.394 164.41 245.702 192.919 257.671 203.715C269.799 214.653 291.656 226.306 301.069 230.764L283.298 273.238C279.601 268.121 266.018 248.295 254.857 226.977C238.078 194.927 226.184 164.434 225.888 163.673C225.881 163.663 225.877 163.658 225.877 163.658C225.874 163.666 213.893 194.523 196.902 226.977Z" fill="#D93511"/>
<path d="M225.877 163.659C225.874 163.666 213.893 194.523 196.902 226.977C185.741 248.296 172.158 268.122 168.461 273.239L149.77 237.007C149.77 237.007 161.416 232.964 180.678 216.794C202.398 198.56 225.88 163.651 225.877 163.659ZM225.877 163.659C225.88 163.651 245.543 192.776 257.671 203.715C269.799 214.654 291.656 226.306 301.069 230.765L283.298 273.239C279.601 268.122 266.018 248.296 254.857 226.977C237.867 194.523 225.885 163.666 225.882 163.659V83.7998" stroke="#D93511" stroke-width="1.5" stroke-linecap="round" stroke-linejoin="round"/>
<path d="M225.873 82.0498L226.554 81.7348C226.431 81.4696 226.165 81.2998 225.873 81.2998C225.581 81.2998 225.315 81.4696 225.192 81.7348L225.873 82.0498ZM287.125 194.347L286.489 194.744L287.125 194.347ZM347.246 276.396V277.146C347.539 277.146 347.806 276.975 347.928 276.708C348.05 276.442 348.006 276.128 347.814 275.906L347.246 276.396ZM104.501 276.396L103.933 275.906C103.741 276.128 103.697 276.442 103.819 276.708C103.941 276.975 104.208 277.146 104.501 277.146V276.396ZM164.621 194.347L165.257 194.744L164.621 194.347ZM225.873 82.0498C225.192 82.3648 225.193 82.3651 225.193 82.3655C225.193 82.366 225.193 82.3666 225.194 82.3675C225.194 82.3692 225.196 82.3718 225.197 82.3752C225.2 82.382 225.205 82.3921 225.211 82.4055C225.224 82.4322 225.242 82.4722 225.267 82.5251C225.316 82.6309 225.39 82.7886 225.487 82.9966C225.682 83.4126 225.972 84.0297 226.354 84.8353C227.118 86.4465 228.249 88.8117 229.718 91.8294C232.656 97.8648 236.948 106.511 242.363 116.956C253.192 137.847 268.515 165.939 286.489 194.744L287.125 194.347L287.761 193.95C269.815 165.189 254.512 137.133 243.695 116.266C238.286 105.833 234 97.1985 231.067 91.1728C229.6 88.16 228.471 85.7995 227.709 84.1927C227.328 83.3893 227.039 82.7743 226.846 82.3605C226.749 82.1535 226.676 81.9969 226.627 81.892C226.602 81.8396 226.584 81.8002 226.572 81.7739C226.566 81.7608 226.561 81.7509 226.558 81.7444C226.557 81.7411 226.555 81.7387 226.555 81.7371C226.554 81.7363 226.554 81.7357 226.554 81.7353C226.554 81.735 226.554 81.7348 225.873 82.0498ZM287.125 194.347L286.489 194.744C310.109 232.597 338.848 267.793 346.678 276.885L347.246 276.396L347.814 275.906C340.014 266.849 311.328 231.717 287.761 193.95L287.125 194.347ZM347.246 276.396V275.646H104.501V276.396V277.146H347.246V276.396ZM104.501 276.396L105.069 276.885C112.899 267.793 141.637 232.597 165.257 194.744L164.621 194.347L163.985 193.95C140.418 231.716 111.733 266.848 103.933 275.906L104.501 276.396ZM164.621 194.347L165.257 194.744C183.231 165.939 198.554 137.846 209.383 116.956C214.798 106.511 219.09 97.8648 222.028 91.8294C223.497 88.8116 224.628 86.4465 225.392 84.8353C225.774 84.0297 226.064 83.4126 226.259 82.9966C226.356 82.7886 226.43 82.6309 226.479 82.5251C226.504 82.4722 226.522 82.4322 226.535 82.4055C226.541 82.3921 226.546 82.382 226.549 82.3752C226.55 82.3718 226.552 82.3692 226.552 82.3675C226.553 82.3666 226.553 82.366 226.553 82.3655C226.554 82.3651 226.554 82.3648 225.873 82.0498C225.192 81.7348 225.192 81.735 225.192 81.7353C225.192 81.7357 225.192 81.7363 225.191 81.7371C225.191 81.7387 225.189 81.7411 225.188 81.7444C225.185 81.7509 225.18 81.7608 225.174 81.7739C225.162 81.8002 225.144 81.8396 225.119 81.892C225.071 81.9969 224.997 82.1535 224.901 82.3605C224.707 82.7743 224.418 83.3893 224.037 84.1927C223.275 85.7995 222.146 88.16 220.679 91.1728C217.746 97.1984 213.46 105.833 208.051 116.266C197.235 137.133 181.931 165.189 163.985 193.95L164.621 194.347Z" fill="#D93511"/>
<rect x="96.0732" y="273.702" width="259.827" height="11.014" rx="5.29716" fill="#E8A56A"/>
<path opacity="0.4" d="M96.0732 279.198C162.981 279.198 302.694 279.198 355.9 279.198C355.9 282.24 353.434 284.705 350.393 284.705H101.58C98.5388 284.705 96.0732 282.24 96.0732 279.198Z" fill="#78614B"/>
<rect x="96.0732" y="273.702" width="259.827" height="11.014" rx="5.29716" stroke="#78614B" stroke-width="1.5"/>
<path d="M225.892 82.5986C207.326 118.89 151.242 193.319 111.932 235.478C96.031 252.531 80.3724 265.3 71.4287 272.103H79.4416L71.4287 275.811H78.714" stroke="#455660" stroke-width="1.5" stroke-linecap="round" stroke-linejoin="round"/>
<path d="M226.084 82.4023C244.65 118.694 299.893 193.314 339.204 235.473C355.105 252.526 370.763 265.295 379.707 272.098H371.694L379.707 275.806H372.422" stroke="#455660" stroke-width="1.5" stroke-linecap="round" stroke-linejoin="round"/>
</g>
<defs>
<clipPath id="clip0_10532_12741">
<rect width="432" height="296" fill="white"/>
</clipPath>
</defs>
</svg>
