<svg width="432" height="296" viewBox="0 0 432 296" fill="none" xmlns="http://www.w3.org/2000/svg">
<g clip-path="url(#clip0_10532_12808)">
<path d="M39.005 72.7146C-10.1295 168.334 58.9482 252.864 146.938 276.906C210.812 294.367 325.753 292.989 375.8 247.563C425.846 202.136 409.69 133.511 358.979 118.082C327.468 108.489 305.513 103.108 263.238 57.1067C210.564 -0.201595 92.2729 -30.9714 39.005 72.7146Z" fill="#D9EAFF"/>
<path d="M367.439 4.40332C367.439 4.40332 367.838 14.9463 372.136 19.2452C376.435 23.544 386.978 23.9428 386.978 23.9428C386.978 23.9428 376.435 24.3415 372.136 28.6404C367.838 32.9393 367.439 43.4823 367.439 43.4823C367.439 43.4823 367.04 32.9393 362.741 28.6404C358.442 24.3415 347.899 23.9428 347.899 23.9428C347.899 23.9428 358.442 23.544 362.741 19.2452C367.04 14.9463 367.439 4.40332 367.439 4.40332Z" fill="#FFBF00"/>
<path d="M39.1435 242.785C39.1435 242.785 39.5232 252.826 43.6172 256.92C47.7112 261.014 57.7518 261.393 57.7518 261.393C57.7518 261.393 47.7112 261.773 43.6172 265.867C39.5232 269.961 39.1435 280.002 39.1435 280.002C39.1435 280.002 38.7637 269.961 34.6697 265.867C30.5757 261.773 20.5352 261.393 20.5352 261.393C20.5352 261.393 30.5757 261.014 34.6697 256.92C38.7637 252.826 39.1435 242.785 39.1435 242.785Z" fill="#FFBF00"/>
<path d="M406.168 61.6201C406.168 61.6201 406.428 68.4798 409.225 71.2768C412.022 74.0739 418.881 74.3333 418.881 74.3333C418.881 74.3333 412.022 74.5927 409.225 77.3897C406.428 80.1868 406.168 87.0465 406.168 87.0465C406.168 87.0465 405.909 80.1868 403.112 77.3897C400.315 74.5927 393.455 74.3333 393.455 74.3333C393.455 74.3333 400.315 74.0739 403.112 71.2768C405.909 68.4798 406.168 61.6201 406.168 61.6201Z" fill="#80BAFF"/>
<path d="M27.9512 217.361L13.1191 217.361M20.5351 224.777L20.5351 209.945" stroke="#80BAFF" stroke-width="1.5" stroke-linecap="round" stroke-linejoin="round"/>
<path d="M307.116 31.9521V43.6059M312.938 37.7745H301.284" stroke="#FFBF00" stroke-width="1.5" stroke-linecap="round" stroke-linejoin="round"/>
<path d="M57.6152 91.2931L44.9021 91.2931M51.2586 97.6497L51.2586 84.9365" stroke="#80BAFF" stroke-width="1.5" stroke-linecap="round" stroke-linejoin="round"/>
<mask id="mask0_10532_12808" style="mask-type:alpha" maskUnits="userSpaceOnUse" x="22" y="4" width="385" height="284">
<path d="M39.005 72.7126C-10.1295 168.332 58.9482 252.862 146.938 276.904C210.812 294.365 325.753 292.987 375.8 247.561C425.846 202.134 409.69 133.509 358.979 118.08C327.468 108.487 305.513 103.106 263.238 57.1047C210.564 -0.203548 92.2729 -30.9734 39.005 72.7126Z" fill="#D9EAFF"/>
</mask>
<g mask="url(#mask0_10532_12808)">
<path d="M229.072 81.0042H112.186H84.652C78.5367 81.0042 68.21 80.5171 68.21 75.1346C68.21 69.9831 70.0837 67.6679 92.472 63.0036C114.86 58.3393 113.431 38.3297 134.404 33.2595C162.7 26.4186 156.792 48.496 170.474 51.2946C184.156 54.0931 198.459 41.3441 212.763 46.3193C227.067 51.2945 218.36 58.1355 223.335 66.5311C228.311 74.9268 241.992 66.5311 242.614 74.3049C243.112 80.5239 233.793 81.3623 229.072 81.0042Z" fill="#FFFCFA"/>
<path opacity="0.5" d="M229.072 81.0095H112.186H84.652C78.5367 81.0095 68.21 80.5224 68.21 75.1399C81.6199 75.3195 111.567 74.4118 124.075 69.3438C139.711 63.0089 145.759 58.6996 154.693 62.2271C160.742 64.6153 156.463 70.4607 176.119 69.3438C190.391 68.5329 194.921 65.1342 206.05 71.5775C214.538 76.4915 233.166 79.2766 242.614 74.3102C243.112 80.5292 233.793 81.3676 229.072 81.0095Z" fill="#80BAFF"/>
<path d="M75.0711 255.176C68.7616 256.426 59.5547 252.72 53.5246 245.352C47.9064 238.483 43.1117 232.218 43.9353 222.658C44.7589 213.098 48.6564 205.377 59.893 201.273C69.1734 197.876 74.7769 191.493 82.9984 190.096C84.7192 189.802 86.5577 189.728 88.5726 189.949C96.4558 190.802 101.648 195.332 106.442 199.508C110.119 202.715 113.575 205.715 117.826 206.715C127.621 208.995 138.063 222.746 132.195 234.939C126.327 247.117 117.973 254.882 107.707 257.324C102.898 258.471 98.5884 257.456 93.882 256.338C93.2349 256.191 92.5877 256.029 91.9259 255.882C87.1166 254.794 81.7924 253.882 75.0711 255.22V255.176Z" fill="#BBED58"/>
<path d="M53.5246 245.334C59.5547 252.703 68.7469 256.409 75.0711 255.159C81.7924 253.821 87.1165 254.732 91.9259 255.821C68.438 240.878 71.0854 231.274 72.7326 225.273C73.2033 223.582 73.5857 222.185 73.2915 221.023C72.6591 218.522 70.9383 217.493 69.1734 216.419C67.2026 215.228 65.1583 213.993 64.4229 210.654C62.6433 202.521 76.9536 193.034 82.9984 190.063C74.7769 191.461 69.1734 197.844 59.893 201.241C48.6564 205.359 44.7589 213.066 43.9353 222.626C43.1117 232.186 47.9064 238.451 53.5246 245.32V245.334Z" fill="#96C734"/>
<path d="M75.0711 255.176C68.7616 256.426 59.5547 252.72 53.5246 245.352C47.9064 238.483 43.1117 232.218 43.9353 222.658C44.7589 213.098 48.6564 205.377 59.893 201.273C69.1734 197.876 74.7769 191.493 82.9984 190.096C84.7192 189.802 86.5577 189.728 88.5726 189.949C96.4558 190.802 101.648 195.332 106.442 199.508C110.119 202.715 113.575 205.715 117.826 206.715C127.621 208.995 138.063 222.746 132.195 234.939C126.327 247.117 117.973 254.882 107.707 257.324C102.898 258.471 98.5884 257.456 93.882 256.338C93.2349 256.191 92.5877 256.029 91.9259 255.882C87.1165 254.794 81.7924 253.882 75.0711 255.22V255.176Z" stroke="#388700" stroke-width="1.5" stroke-linecap="round" stroke-linejoin="round"/>
<path d="M315.357 284.13C307.376 285.711 295.731 281.023 288.104 271.703C280.998 263.016 274.934 255.091 275.975 243C277.017 230.908 281.947 221.142 296.159 215.952C307.897 211.655 314.985 203.581 325.383 201.814C327.56 201.442 329.885 201.349 332.434 201.628C342.405 202.707 348.971 208.437 355.036 213.72C359.686 217.775 364.058 221.57 369.434 222.835C381.823 225.718 395.031 243.111 387.609 258.533C380.186 273.936 369.62 283.758 356.636 286.846C350.553 288.297 345.102 287.013 339.149 285.599C338.331 285.413 337.512 285.209 336.675 285.023C330.592 283.646 323.858 282.493 315.357 284.186V284.13Z" fill="#BBED58"/>
<path d="M288.104 271.696C295.731 281.016 307.358 285.704 315.357 284.122C323.858 282.43 330.592 283.583 336.675 284.96C306.967 266.059 310.316 253.912 312.399 246.322C312.994 244.183 313.478 242.416 313.106 240.946C312.306 237.784 310.13 236.482 307.897 235.124C305.404 233.617 302.819 232.054 301.889 227.831C299.638 217.544 317.738 205.546 325.383 201.788C314.985 203.555 307.897 211.629 296.159 215.926C281.947 221.135 277.017 230.882 275.975 242.974C274.934 255.065 280.998 262.99 288.104 271.677V271.696Z" fill="#96C734"/>
<path d="M315.357 284.13C307.376 285.711 295.731 281.023 288.104 271.703C280.998 263.016 274.934 255.091 275.975 243C277.017 230.908 281.947 221.142 296.159 215.952C307.897 211.655 314.985 203.581 325.383 201.814C327.56 201.442 329.885 201.349 332.434 201.628C342.405 202.707 348.971 208.437 355.036 213.72C359.686 217.775 364.058 221.57 369.434 222.835C381.823 225.718 395.031 243.111 387.609 258.533C380.186 273.936 369.62 283.758 356.636 286.846C350.553 288.297 345.102 287.013 339.149 285.599C338.331 285.413 337.512 285.209 336.675 285.023C330.592 283.646 323.858 282.493 315.357 284.186V284.13Z" stroke="#388700" stroke-width="1.5" stroke-linecap="round" stroke-linejoin="round"/>
<path d="M28.0624 140.53C45.6418 131.027 44.2313 97.5282 82.0475 108.17C91.6958 110.882 115.019 127.233 106.168 153.333C99.7291 172.302 118.474 186.168 110.849 201.665C94.5575 234.746 40.695 221.222 24.1581 195.861C6.96705 169.514 11.0757 149.71 28.0624 140.511V140.53Z" fill="#BBED58"/>
<path d="M28.0663 140.53C45.6457 131.027 44.2353 97.5282 82.0515 108.17C74.6313 107.525 55.11 105.324 55.11 122.586C55.11 130.723 62.7345 137.779 61.9169 153.333C60.8744 173.156 40.2288 172.662 44.0718 195.861C46.77 212.174 70.768 218.908 76.2462 221.26C56.0912 221.392 33.8103 210.637 24.1825 195.861C6.99147 169.514 11.1002 149.71 28.0868 140.511L28.0663 140.53Z" fill="#96C734"/>
<path d="M28.0624 140.53C45.6418 131.027 44.2313 97.5282 82.0475 108.17C91.6958 110.882 115.019 127.233 106.168 153.333C99.7291 172.302 118.474 186.168 110.849 201.665C94.5575 234.746 40.695 221.222 24.1581 195.861C6.96705 169.514 11.0757 149.71 28.0624 140.511V140.53Z" stroke="#388700" stroke-width="1.5" stroke-linecap="round" stroke-linejoin="round"/>
<path fill-rule="evenodd" clip-rule="evenodd" d="M65.2296 203.212C63.6447 203.212 60.8348 204.236 61.3867 210.61H61.3663C61.4381 211.44 61.5284 212.382 61.6262 213.404C62.2793 220.225 62.8196 243.334 60.9173 247.095C60.6705 247.583 60.6506 248.096 60.8072 248.612C64.2393 247.422 67.6513 246.19 71.0417 244.917C70.2955 241.732 69.461 225.651 69.461 221.668C73.8967 216.471 82.0119 206.531 82.1141 204.559C82.1966 202.988 77.9923 207.845 74.0562 212.392C72.1439 214.6 70.295 216.736 69.0317 218.026C68.8682 216.49 68.7864 215.01 68.7864 213.664C68.8069 203.724 66.8145 203.212 65.2296 203.212Z" fill="#E8A56A"/>
<path d="M396.309 236.689C384.031 242.029 371.616 245.7 353.932 242.029C326.877 236.412 312.952 201.223 326.916 178.194C336.621 162.189 312.198 140.441 331.068 127.605C340.322 121.31 361.406 123.034 377.488 137.421C405.834 162.779 385.952 176.599 405.416 200.468C415.758 213.151 411.656 230.013 396.309 236.689Z" fill="#BBED58"/>
<path d="M326.916 178.194C336.621 162.189 312.197 140.441 331.068 127.605C335.27 124.747 341.912 123.542 349.417 124.425C335.237 131.072 332.942 150.706 349.417 175.587C365.893 200.468 330.66 201.517 344.171 224.927C351.88 238.285 372.414 243.186 375.188 243.027C368.865 243.848 361.939 243.691 353.932 242.029C326.877 236.412 312.952 201.223 326.916 178.194Z" fill="#96C734"/>
<path d="M396.309 236.689C384.031 242.029 371.616 245.7 353.932 242.029C326.877 236.412 312.952 201.223 326.916 178.194C336.621 162.189 312.198 140.441 331.068 127.605C340.322 121.31 361.406 123.034 377.488 137.421C405.834 162.779 385.952 176.599 405.416 200.468C415.758 213.151 411.656 230.013 396.309 236.689Z" stroke="#388700" stroke-width="1.5" stroke-linejoin="round"/>
<path d="M367.048 241.674C367.047 252.806 369.576 269.624 370.841 276.641C372.251 285.409 358.754 276.641 360.65 270.575C362.546 264.509 361.124 246.312 360.65 237.392C360.176 228.472 362.562 228.934 363.61 228.934C364.658 228.934 367.048 227.758 367.048 241.674Z" fill="#E8A56A"/>
<path d="M214.086 269.517C201.808 274.857 189.393 278.529 171.71 274.857C144.655 269.24 130.73 234.051 144.694 211.022C154.399 195.017 129.975 173.269 148.845 160.433C158.099 154.138 179.183 155.863 195.265 170.249C223.611 195.607 203.729 209.427 223.193 233.296C233.535 245.979 229.433 262.841 214.086 269.517Z" fill="#BBED58"/>
<path d="M144.693 211.022C154.399 195.017 129.975 173.269 148.845 160.433C153.047 157.575 159.689 156.37 167.195 157.253C153.014 163.9 150.719 183.534 167.195 208.415C183.67 233.296 148.437 234.345 161.948 257.755C169.657 271.113 190.192 276.014 192.965 275.855C186.642 276.676 179.716 276.519 171.71 274.857C144.655 269.24 130.73 234.051 144.693 211.022Z" fill="#96C734"/>
<path d="M214.086 269.517C201.808 274.857 189.393 278.529 171.71 274.857C144.655 269.24 130.73 234.051 144.694 211.022C154.399 195.017 129.975 173.269 148.845 160.433C158.099 154.138 179.183 155.863 195.265 170.249C223.611 195.607 203.729 209.427 223.193 233.296C233.535 245.979 229.433 262.841 214.086 269.517Z" stroke="#388700" stroke-width="1.5" stroke-linejoin="round"/>
<path d="M184.825 274.51C184.824 285.642 187.354 302.46 188.618 309.477C190.028 318.245 176.531 309.477 178.427 303.411C180.323 297.345 178.901 279.148 178.427 270.228C177.953 261.307 180.34 261.77 181.387 261.77C182.435 261.77 184.826 260.594 184.825 274.51Z" fill="#E8A56A"/>
<path d="M300.959 267.403C288.681 272.743 276.266 276.414 258.583 272.743C231.528 267.126 217.603 231.937 231.567 208.908C241.272 192.902 216.848 171.154 235.718 158.319C244.972 152.024 266.057 153.748 282.138 168.135C310.484 193.493 290.602 207.313 310.066 231.181C320.409 243.865 316.307 260.727 300.959 267.403Z" fill="#BBED58"/>
<path d="M231.566 208.908C241.272 192.902 216.848 171.154 235.718 158.319C239.92 155.46 246.562 154.256 254.068 155.139C239.887 161.786 237.592 181.42 254.068 206.301C270.543 231.181 235.311 232.231 248.821 255.641C256.531 268.999 277.065 273.9 279.838 273.741C273.515 274.562 266.589 274.405 258.583 272.743C231.528 267.126 217.603 231.937 231.566 208.908Z" fill="#96C734"/>
<path d="M300.959 267.403C288.681 272.743 276.266 276.414 258.583 272.743C231.528 267.126 217.603 231.937 231.567 208.908C241.272 192.902 216.848 171.154 235.718 158.319C244.972 152.024 266.057 153.748 282.138 168.135C310.484 193.493 290.602 207.313 310.066 231.181C320.409 243.865 316.307 260.727 300.959 267.403Z" stroke="#388700" stroke-width="1.5" stroke-linejoin="round"/>
<path d="M271.698 272.387C271.697 283.52 274.227 300.338 275.491 307.355C276.901 316.123 263.404 307.355 265.3 301.289C267.196 295.223 265.774 277.026 265.3 268.106C264.826 259.185 267.213 259.648 268.26 259.648C269.308 259.648 271.699 258.472 271.698 272.387Z" fill="#E8A56A"/>
</g>
<path d="M216.53 22.3164V57.7787" stroke="#D93511" stroke-width="1.5"/>
<path d="M231.113 24.9467C228.096 24.9467 225.079 20.4404 222.062 20.4404C219.837 20.4404 217.885 21.3595 217.014 21.842C216.705 22.013 216.53 22.3419 216.53 22.6947V33.4013C216.53 34.2493 217.514 34.8083 218.299 34.4893C219.292 34.0862 220.619 33.7 222.062 33.7C225.079 33.7 228.096 38.2062 231.113 38.2062C233.509 38.2062 237.491 36.6643 239.029 36.0296C239.416 35.8695 239.661 35.491 239.661 35.0715V24.1285C239.661 23.3628 238.872 22.8407 238.159 23.119C236.302 23.8432 233.14 24.9467 231.113 24.9467Z" fill="#FF9780"/>
<path d="M231.113 24.9467C228.096 24.9467 225.079 20.4404 222.062 20.4404C219.837 20.4404 217.885 21.3595 217.014 21.842C216.705 22.013 216.53 22.3419 216.53 22.6947V33.4013C216.53 34.2493 217.514 34.8083 218.299 34.4893C219.292 34.0862 220.619 33.7 222.062 33.7C225.079 33.7 228.096 38.2062 231.113 38.2062C233.509 38.2062 237.491 36.6643 239.029 36.0296C239.416 35.8695 239.661 35.491 239.661 35.0715V24.1285C239.661 23.3628 238.872 22.8407 238.159 23.119C236.302 23.8432 233.14 24.9467 231.113 24.9467Z" stroke="#D93511" stroke-width="1.5"/>
<path d="M195.925 68.272H208.598V59.8845C208.598 58.7143 209.547 57.7656 210.717 57.7656H222.954C224.124 57.7656 225.073 58.7143 225.073 59.8845V68.272H237.746V59.8845C237.746 58.7143 238.694 57.7656 239.864 57.7656H252.102C253.272 57.7656 254.22 58.7143 254.22 59.8845V135.98H179.45V59.8845C179.45 58.7143 180.399 57.7656 181.569 57.7656H193.806C194.976 57.7656 195.925 58.7143 195.925 59.8845V68.272Z" fill="#E6E8EA" stroke="#455660" stroke-width="1.5"/>
<path d="M195.925 68.146H208.598V59.7585C208.598 58.5883 209.547 57.6396 210.717 57.6396H222.954C224.124 57.6396 225.073 58.5883 225.073 59.7585V68.146H237.746V59.7585C237.746 58.5883 238.694 57.6396 239.864 57.6396H252.102C253.272 57.6396 254.22 58.5883 254.22 59.7585V135.854H179.45V59.7585C179.45 58.5883 180.399 57.6396 181.569 57.6396H193.806C194.976 57.6396 195.925 58.5883 195.925 59.7585V68.146Z" stroke="#455660" stroke-width="1.5"/>
<path d="M204.777 85.5406C204.777 83.7853 206.2 82.3623 207.956 82.3623H225.718C227.474 82.3623 228.897 83.7853 228.897 85.5406V113.648H204.777V85.5406Z" fill="#455660"/>
<path d="M359.298 68.6306C358.794 67.8239 357.704 67.5327 356.864 67.9802L334.648 79.8197L336.475 82.741L358.692 70.9015C359.531 70.454 359.803 69.4373 359.298 68.6306Z" fill="#455660"/>
<path d="M359.298 68.6306C358.794 67.8239 357.704 67.5327 356.864 67.9802L334.648 79.8197L336.475 82.741L358.692 70.9015C359.531 70.454 359.803 69.4373 359.298 68.6306V68.6306Z" stroke="#455660" stroke-width="1.5" stroke-linejoin="round"/>
<rect width="26.8969" height="6.89144" transform="matrix(-0.882504 0.470306 0.530293 0.847814 344.812 72.4688)" fill="#455660"/>
<rect width="26.8969" height="6.89144" transform="matrix(-0.882504 0.470306 0.530293 0.847814 344.812 72.4688)" stroke="#455660" stroke-width="1.5" stroke-linejoin="round"/>
<path d="M341.113 96.3269C341.113 95.1567 340.165 94.208 338.994 94.208H303.761C302.591 94.208 301.642 95.1567 301.642 96.3269V124.997C301.642 126.167 302.591 127.116 303.761 127.116H338.994C340.165 127.116 341.113 126.167 341.113 124.997V96.3269Z" fill="#E6E8EA"/>
<path d="M341.113 96.3269C341.113 95.1567 340.165 94.208 338.994 94.208H303.761C302.591 94.208 301.642 95.1567 301.642 96.3269V124.997C301.642 126.167 302.591 127.116 303.761 127.116H338.994C340.165 127.116 341.113 126.167 341.113 124.997V96.3269Z" stroke="#455660" stroke-width="1.5"/>
<path d="M328.38 94.2103C328.38 88.3685 323.644 83.6328 317.802 83.6328H306.307C305.137 83.6328 304.188 84.5815 304.188 85.7517V94.2103H328.38Z" fill="#E6E8EA"/>
<path d="M328.38 94.2103C328.38 88.3685 323.644 83.6328 317.802 83.6328H306.307C305.137 83.6328 304.188 84.5815 304.188 85.7517V94.2103H328.38V94.2103Z" stroke="#455660" stroke-width="1.5"/>
<path d="M74.4243 68.6306C74.9288 67.8239 76.0186 67.5327 76.8583 67.9802L99.0745 79.8197L97.2472 82.741L75.0311 70.9015C74.1914 70.454 73.9197 69.4373 74.4243 68.6306Z" fill="#455660"/>
<path d="M74.4243 68.6306C74.9288 67.8239 76.0186 67.5327 76.8583 67.9802L99.0745 79.8197L97.2472 82.741L75.0311 70.9015C74.1914 70.454 73.9197 69.4373 74.4243 68.6306V68.6306Z" stroke="#455660" stroke-width="1.5" stroke-linejoin="round"/>
<rect width="26.8969" height="6.89144" transform="matrix(0.882504 0.470306 -0.530293 0.847814 88.9111 72.4688)" fill="#455660"/>
<rect width="26.8969" height="6.89144" transform="matrix(0.882504 0.470306 -0.530293 0.847814 88.9111 72.4688)" stroke="#455660" stroke-width="1.5" stroke-linejoin="round"/>
<path d="M92.6094 96.3269C92.6094 95.1567 93.558 94.208 94.7282 94.208H129.961C131.132 94.208 132.08 95.1567 132.08 96.3269V124.997C132.08 126.167 131.132 127.116 129.961 127.116H94.7282C93.558 127.116 92.6094 126.167 92.6094 124.997V96.3269Z" fill="#E6E8EA"/>
<path d="M92.6094 96.3269C92.6094 95.1567 93.558 94.208 94.7282 94.208H129.961C131.132 94.208 132.08 95.1567 132.08 96.3269V124.997C132.08 126.167 131.132 127.116 129.961 127.116H94.7282C93.558 127.116 92.6094 126.167 92.6094 124.997V96.3269Z" stroke="#455660" stroke-width="1.5"/>
<path d="M105.343 94.2103C105.343 88.3685 110.078 83.6328 115.92 83.6328H127.416C128.586 83.6328 129.535 84.5815 129.535 85.7517V94.2103H105.343Z" fill="#E6E8EA"/>
<path d="M105.343 94.2103C105.343 88.3685 110.078 83.6328 115.92 83.6328H127.416C128.586 83.6328 129.535 84.5815 129.535 85.7517V94.2103H105.343V94.2103Z" stroke="#455660" stroke-width="1.5"/>
<path d="M84.9348 103.583C86.3425 103.583 87.4836 104.621 87.4836 105.9V114.012H101.502V105.9C101.502 104.621 102.644 103.583 104.051 103.583H115.521C116.929 103.583 118.07 104.621 118.07 105.9V114.012H132.089V105.9C132.089 104.621 133.23 103.583 134.638 103.583H146.108C147.515 103.583 148.656 104.621 148.656 105.9V114.012H162.675V105.9C162.675 104.621 163.816 103.583 165.224 103.583H176.694C178.102 103.583 179.243 104.621 179.243 105.9V114.012H193.262V105.9C193.262 104.621 194.403 103.583 195.81 103.583H207.28C208.688 103.583 209.829 104.621 209.829 105.9V114.012H223.848V105.9C223.848 104.621 224.989 103.583 226.397 103.583H237.867C239.274 103.583 240.416 104.621 240.416 105.9V114.012H254.434V105.9C254.434 104.621 255.576 103.583 256.983 103.583H268.453C269.861 103.583 271.002 104.621 271.002 105.9V114.012H285.021V105.9C285.021 104.621 286.162 103.583 287.57 103.583H299.039C300.447 103.583 301.588 104.621 301.588 105.9V114.012H315.607V105.9C315.607 104.621 316.748 103.583 318.156 103.583H329.626C331.034 103.583 332.175 104.621 332.175 105.9V114.012H346.193V105.9C346.193 104.621 347.335 103.583 348.742 103.583H360.212C361.62 103.583 362.761 104.621 362.761 105.9V132.75C362.761 133.92 361.812 134.869 360.642 134.869H73.0349C71.8647 134.869 70.916 133.92 70.916 132.75V105.9C70.916 104.621 72.0572 103.583 73.4649 103.583H84.9348Z" fill="#E6E8EA"/>
<path d="M84.9348 103.457C86.3425 103.457 87.4836 104.495 87.4836 105.774V113.886H101.502V105.774C101.502 104.495 102.644 103.457 104.051 103.457H115.521C116.929 103.457 118.07 104.495 118.07 105.774V113.886H132.089V105.774C132.089 104.495 133.23 103.457 134.638 103.457H146.108C147.515 103.457 148.656 104.495 148.656 105.774V113.886H162.675V105.774C162.675 104.495 163.816 103.457 165.224 103.457H176.694C178.102 103.457 179.243 104.495 179.243 105.774V113.886H193.262V105.774C193.262 104.495 194.403 103.457 195.81 103.457H207.28C208.688 103.457 209.829 104.495 209.829 105.774V113.886H223.848V105.774C223.848 104.495 224.989 103.457 226.397 103.457H237.867C239.274 103.457 240.416 104.495 240.416 105.774V113.886H254.434V105.774C254.434 104.495 255.576 103.457 256.983 103.457H268.453C269.861 103.457 271.002 104.495 271.002 105.774V113.886H285.021V105.774C285.021 104.495 286.162 103.457 287.57 103.457H299.039C300.447 103.457 301.588 104.495 301.588 105.774V113.886H315.607V105.774C315.607 104.495 316.748 103.457 318.156 103.457H329.626C331.034 103.457 332.175 104.495 332.175 105.774V113.886H346.193V105.774C346.193 104.495 347.335 103.457 348.742 103.457H360.212C361.62 103.457 362.761 104.495 362.761 105.774V132.624C362.761 133.794 361.812 134.743 360.642 134.743H73.0349C71.8647 134.743 70.916 133.794 70.916 132.624V105.774C70.916 104.495 72.0572 103.457 73.4649 103.457H84.9348Z" stroke="#455660" stroke-width="1.5"/>
<path d="M80.0967 133.918H348.754L362.555 289.205C362.665 290.444 361.689 291.511 360.444 291.511H68.4063C67.1621 291.511 66.1857 290.444 66.2958 289.205L80.0967 133.918Z" fill="#E6E8EA"/>
<path d="M80.0967 134.688H348.754L362.554 289.213C362.664 290.453 361.688 291.521 360.443 291.521H68.4073C67.1627 291.521 66.1862 290.453 66.2969 289.213L80.0967 134.688Z" stroke="#455660" stroke-width="1.5"/>
<g opacity="0.2">
<path d="M93.3483 189.149C93.3483 187.93 94.4075 186.942 95.7141 186.942H111.082C112.389 186.942 113.448 187.93 113.448 189.149V192.234C113.448 193.453 112.389 194.441 111.082 194.441H95.7141C94.4075 194.441 93.3483 193.453 93.3483 192.234V189.149Z" fill="#455660"/>
<path d="M256.317 146.189C256.317 144.97 257.376 143.982 258.683 143.982H274.051C275.358 143.982 276.417 144.97 276.417 146.189V149.274C276.417 150.493 275.358 151.481 274.051 151.481H258.683C257.376 151.481 256.317 150.493 256.317 149.274V146.189Z" fill="#455660"/>
<path d="M148.547 255.201C148.547 253.982 149.606 252.994 150.912 252.994H166.28C167.587 252.994 168.646 253.982 168.646 255.201V258.285C168.646 259.504 167.587 260.492 166.28 260.492H150.912C149.606 260.492 148.547 259.504 148.547 258.285V255.201Z" fill="#455660"/>
<path d="M307.731 210.089C307.731 208.871 308.79 207.882 310.097 207.882H325.465C326.771 207.882 327.831 208.871 327.831 210.089V213.174C327.831 214.393 326.771 215.381 325.465 215.381H310.097C308.79 215.381 307.731 214.393 307.731 213.174V210.089Z" fill="#455660"/>
<path d="M256.317 167.144C256.317 165.925 257.376 164.937 258.683 164.937H274.051C275.358 164.937 276.417 165.925 276.417 167.144V170.228C276.417 171.447 275.358 172.435 274.051 172.435H258.683C257.376 172.435 256.317 171.447 256.317 170.228V167.144Z" fill="#455660"/>
<path d="M82.1758 199.422C82.1758 198.204 83.235 197.216 84.5415 197.216H99.9096C101.216 197.216 102.275 198.204 102.275 199.422V202.507C102.275 203.726 101.216 204.714 99.9096 204.714H84.5415C83.235 204.714 82.1758 203.726 82.1758 202.507V199.422Z" fill="#455660"/>
<path d="M245.145 156.462C245.145 155.244 246.204 154.256 247.51 154.256H262.878C264.185 154.256 265.244 155.244 265.244 156.462V159.547C265.244 160.766 264.185 161.754 262.878 161.754H247.51C246.204 161.754 245.145 160.766 245.145 159.547V156.462Z" fill="#455660"/>
<path d="M137.374 265.474C137.374 264.255 138.433 263.267 139.74 263.267H155.108C156.414 263.267 157.474 264.255 157.474 265.474V268.558C157.474 269.777 156.414 270.765 155.108 270.765H139.74C138.433 270.765 137.374 269.777 137.374 268.558V265.474Z" fill="#455660"/>
<path d="M296.558 220.362C296.558 219.144 297.618 218.156 298.924 218.156H314.292C315.599 218.156 316.658 219.144 316.658 220.362V223.447C316.658 224.666 315.599 225.654 314.292 225.654H298.924C297.618 225.654 296.558 224.666 296.558 223.447V220.362Z" fill="#455660"/>
<path d="M104.964 199.422C104.964 198.204 106.024 197.216 107.33 197.216H122.698C124.005 197.216 125.064 198.204 125.064 199.422V202.507C125.064 203.726 124.005 204.714 122.698 204.714H107.33C106.024 204.714 104.964 203.726 104.964 202.507V199.422Z" fill="#455660"/>
<path d="M267.933 156.462C267.933 155.244 268.993 154.256 270.299 154.256H285.667C286.974 154.256 288.033 155.244 288.033 156.462V159.547C288.033 160.766 286.974 161.754 285.667 161.754H270.299C268.993 161.754 267.933 160.766 267.933 159.547V156.462Z" fill="#455660"/>
<path d="M161.346 265.474C161.346 264.255 162.405 263.267 163.711 263.267H179.079C180.386 263.267 181.445 264.255 181.445 265.474V268.558C181.445 269.777 180.386 270.765 179.079 270.765H163.711C162.405 270.765 161.346 269.777 161.346 268.558V265.474Z" fill="#455660"/>
<path d="M319.347 220.362C319.347 219.144 320.406 218.156 321.713 218.156H337.081C338.387 218.156 339.447 219.144 339.447 220.362V223.447C339.447 224.666 338.387 225.654 337.081 225.654H321.713C320.406 225.654 319.347 224.666 319.347 223.447V220.362Z" fill="#455660"/>
</g>
<path d="M117.945 135.064V291.518" stroke="#455660" stroke-width="1.5"/>
<path d="M315.728 135.064V291.518" stroke="#455660" stroke-width="1.5"/>
<path d="M70.916 127.049L362.761 127.049" stroke="#455660" stroke-width="1.5"/>
<path d="M68.5029 274.762H360.348" stroke="#455660" stroke-width="1.5"/>
<path d="M196.132 223.361C196.132 221.606 197.555 220.183 199.31 220.183H235.575C237.33 220.183 238.753 221.606 238.753 223.361V291.52H196.132V223.361Z" fill="#455660"/>
<path d="M186.088 215.603C186.088 212.092 188.934 209.246 192.444 209.246H242.432C245.943 209.246 248.789 212.092 248.789 215.603L248.789 291.586H186.088L186.088 215.603Z" stroke="#455660" stroke-width="1.5"/>
</g>
<defs>
<clipPath id="clip0_10532_12808">
<rect width="432" height="296" fill="white"/>
</clipPath>
</defs>
</svg>
